<svg xmlns="http://www.w3.org/2000/svg" width="24" height="24" viewBox="0 0 24 24"><path d="M14.955,23.59a24.466,24.466,0,0,1-8.883-5.661A24.476,24.476,0,0,1,.41,9.046,6.652,6.652,0,0,1,.071,5.782,6.809,6.809,0,0,1,3.57.8,6.684,6.684,0,0,1,6.77,0,.75.75,0,0,1,7.5.593L8.68,6.086a.754.754,0,0,1-.2.688L6.465,8.785a19.739,19.739,0,0,0,8.75,8.749l2.011-2.011a.747.747,0,0,1,.688-.2L23.407,16.5A.75.75,0,0,1,24,17.23a6.686,6.686,0,0,1-.8,3.2,6.8,6.8,0,0,1-4.983,3.5,6.62,6.62,0,0,1-3.263-.339ZM2.456,3.746A5.166,5.166,0,0,0,1.82,8.533,22.749,22.749,0,0,0,15.468,22.181a5.255,5.255,0,0,0,7-4.351L18,16.872l-2.1,2.1a.75.75,0,0,1-.85.148A21.227,21.227,0,0,1,4.879,8.951.749.749,0,0,1,5.028,8.1L7.129,6,6.171,1.533A5.192,5.192,0,0,0,2.456,3.746ZM22.5,12A10.512,10.512,0,0,0,12,1.5.75.75,0,1,1,12,0,12,12,0,0,1,24,12a.75.75,0,1,1-1.5,0Zm-3,0A7.508,7.508,0,0,0,12,4.5.75.75,0,1,1,12,3a9.01,9.01,0,0,1,9,9,.75.75,0,0,1-1.5,0Zm-3,0A4.5,4.5,0,0,0,12,7.5.75.75,0,1,1,12,6a6.007,6.007,0,0,1,6,6,.75.75,0,0,1-1.5,0Z" opacity="0.5"/></svg>