<svg xmlns="http://www.w3.org/2000/svg" width="24" height="24" viewBox="0 0 24 24"><path d="M21.809,2.191a7.481,7.481,0,0,0-10.58,0L8.3,5.12A7.463,7.463,0,0,0,6.955,6.954,7.462,7.462,0,0,0,5.12,8.3L2.191,11.229A7.481,7.481,0,0,0,7.481,24h0a7.431,7.431,0,0,0,5.289-2.191L15.7,18.88a7.461,7.461,0,0,0,1.345-1.834A7.461,7.461,0,0,0,18.88,15.7l2.929-2.929a7.481,7.481,0,0,0,0-10.58Zm-7.1,15.694-2.929,2.929a6.034,6.034,0,0,1-4.3,1.779h0a6.075,6.075,0,0,1-4.3-10.371L6.115,9.294a6.079,6.079,0,0,1,9.549,1.243l-.553.553L14.7,11.5a1.574,1.574,0,0,1-.147.129,1.544,1.544,0,0,1-.953.326,1.588,1.588,0,0,1-.185-.011,1.541,1.541,0,0,1-.8-.341h0l-.057-.05-.008-.007L12.5,11.5h0l-.009-.009-.034-.032-.069-.066-.044-.038-.067-.057-.051-.04-.064-.049-.058-.041-.06-.042-.065-.041-.057-.036-.072-.041-.053-.03-.08-.04-.049-.024-.087-.039-.044-.019-.095-.037-.039-.015-.1-.034-.034-.011-.112-.031-.027-.007c-.041-.01-.082-.019-.123-.028l-.018,0q-.069-.014-.14-.024h0a3,3,0,0,0-.439-.032,2.943,2.943,0,0,0-2.095.868L5.387,14.424a2.963,2.963,0,1,0,4.19,4.19l1.25-1.25.084.032.042.016.171.062.012,0q.194.067.391.123l.013,0,.181.049.027.007.174.042.023.005.193.041h0a7.442,7.442,0,0,0,2.658.044ZM14.485,7.314l.934-.934a1.556,1.556,0,1,1,2.2,2.2l-.934.934a7.524,7.524,0,0,0-2.2-2.2ZM9.515,16.686l-.934.934a1.556,1.556,0,1,1-2.2-2.2l.934-.934a7.521,7.521,0,0,0,2.2,2.2Zm11.3-4.909-2.929,2.929a6.079,6.079,0,0,1-9.549-1.243L9.3,12.5a1.558,1.558,0,0,1,1.827-.276l0,0,.053.03.013.007.041.026.023.015.03.021.032.023.02.016.04.032.011.009.048.042h0l.055.053.01.009.052.049.052.049.054.046.057.049.052.041.063.049.051.036.068.048.049.031.073.046.047.027.078.044.046.023.082.041.046.02.085.038.046.018.088.034.047.015.089.029.051.014.087.024.058.013.082.018.071.012.071.012.091.011.053.007q.145.014.293.014a2.943,2.943,0,0,0,2.095-.868l1.332-1.332h0l1.588-1.588a2.962,2.962,0,1,0-4.19-4.19l-1.25,1.25L13.1,6.608l-.055-.021-.151-.055-.032-.011q-.19-.065-.383-.121l-.031-.009-.162-.044-.041-.01L12.087,6.3l-.037-.008-.174-.037-.018,0a7.559,7.559,0,0,0-.817-.115h-.007c-.207-.017-.415-.027-.623-.027a7.488,7.488,0,0,0-1.207.1l.091-.093,2.929-2.929a6.075,6.075,0,0,1,8.591,8.591Z" opacity="0.5"/></svg>