<svg xmlns="http://www.w3.org/2000/svg" xmlns:xlink="http://www.w3.org/1999/xlink" width="32" height="32" viewBox="0 0 32 32"><defs><clipPath id="a"><rect width="32" height="32" transform="translate(1050 221)" fill="#fff" stroke="#707070" stroke-width="1"/></clipPath></defs><g transform="translate(-1050 -221)" clip-path="url(#a)"><g transform="translate(1050.941 221.941)"><path d="M641.041,499.717l-5.888-5.888-5.324,5.324,5.888,5.888" transform="translate(-624.343 -488.343)" fill="#313131"/><path d="M641.368,500.045l-5.323,5.324a9.417,9.417,0,0,0,2.1,10.084l13.31-13.31A9.418,9.418,0,0,0,641.368,500.045Z" transform="translate(-624.67 -488.67)" fill="#313131"/><line x1="8.342" y1="8.342" transform="translate(20.793 20.793)" fill="#fff"/><path d="M645.458,508.127h0l5.99-5.99a.941.941,0,0,0,0-1.331,10.3,10.3,0,0,0-7.306-3.02,10.428,10.428,0,0,0-3.19.51l-4.81-4.811.665-.665-.665-.665.665.665a2.823,2.823,0,1,0-3.993-3.992l-7.986,7.986a2.823,2.823,0,0,0,3.992,3.993l.665-.665,4.811,4.81a10.428,10.428,0,0,0-.51,3.19,10.3,10.3,0,0,0,3.02,7.306.941.941,0,0,0,1.331,0l5.99-5.99,8.343,8.343a.941.941,0,0,0,1.331-1.331Zm-18.634-8.376a.94.94,0,0,1-.665-1.606l7.986-7.987a.941.941,0,1,1,1.331,1.331l-1.331,1.331h0l-5.324,5.324h0l-1.331,1.331A.931.931,0,0,1,626.824,499.751Zm7.986-4.934,4.557,4.557-3.992,3.992-4.557-4.557Zm.859,13.324a8.539,8.539,0,0,1,.525-2.932l5.016-5.016a8.54,8.54,0,0,1,2.932-.525,8.421,8.421,0,0,1,5.271,1.843l-11.9,11.9A8.421,8.421,0,0,1,635.669,508.141Z" transform="translate(-624 -488)"/><line y1="5.324" x2="5.324" transform="translate(11.374 11.374)" fill="#97dbff"/><path d="M636.692,506.016l5.324-5.324a.941.941,0,1,0-1.332-1.331l-5.323,5.323a.941.941,0,0,0,1.331,1.332" transform="translate(-624.652 -488.652)"/></g></g></svg>