<svg xmlns="http://www.w3.org/2000/svg" width="24" height="24" viewBox="0 0 24 24"><path d="M4924-1094a11.921,11.921,0,0,1-8.485-3.515A11.921,11.921,0,0,1,4912-1106a11.921,11.921,0,0,1,3.515-8.485A11.922,11.922,0,0,1,4924-1118a11.92,11.92,0,0,1,8.485,3.515A11.919,11.919,0,0,1,4936-1106a11.919,11.919,0,0,1-3.515,8.485A11.919,11.919,0,0,1,4924-1094Zm2.167-17.5a.818.818,0,0,0-.584.243l-4.11,4.115A1.6,1.6,0,0,0,4921-1106a1.6,1.6,0,0,0,.472,1.142l4.112,4.115a.819.819,0,0,0,.582.243.814.814,0,0,0,.583-.242.819.819,0,0,0,.242-.583.815.815,0,0,0-.24-.582l-4.11-4.114,4.11-4.074a.655.655,0,0,0,.241-.582.815.815,0,0,0-.243-.582A.82.82,0,0,0,4926.167-1111.5Z" transform="translate(-4912 1118)"/></svg>