<svg xmlns="http://www.w3.org/2000/svg" xmlns:xlink="http://www.w3.org/1999/xlink" width="32" height="32" viewBox="0 0 32 32"><defs><clipPath id="a"><rect width="32" height="32" transform="translate(1146 317)" fill="#fff" stroke="#707070" stroke-width="1"/></clipPath></defs><g transform="translate(-1146 -317)" clip-path="url(#a)"><g transform="translate(1146.941 319.823)"><path d="M749.235,611H721v1.882a1.882,1.882,0,0,0,1.882,1.882h24.471a1.882,1.882,0,0,0,1.882-1.882Z" transform="translate(-720.059 -589.353)" fill="#c9cfff"/><path d="M730,601.647l3.765-3.765,3.765,3.765L743.177,596" transform="translate(-720.588 -588.471)" fill="#fff"/><g transform="translate(0 0)"><path d="M749.842,608.982a.948.948,0,0,0-.665-.276h-.941V590.824A2.825,2.825,0,0,0,745.412,588H724.706a2.825,2.825,0,0,0-2.824,2.824v17.882h-.941a.942.942,0,0,0-.941.941v1.882a2.824,2.824,0,0,0,2.824,2.823h24.471a2.824,2.824,0,0,0,2.824-2.823v-1.882A.948.948,0,0,0,749.842,608.982Zm-26.077-18.158a.941.941,0,0,1,.941-.941h20.706a.942.942,0,0,1,.941.941v17.882H723.765Zm24.471,20.706a.943.943,0,0,1-.941.941H722.824a.943.943,0,0,1-.941-.941v-.941h26.353Z" transform="translate(-720 -588)" fill="#313131"/><path d="M742.452,595.276l-4.982,4.982-3.1-3.1a.94.94,0,0,0-1.331,0l-3.765,3.765a.941.941,0,0,0,1.331,1.331h0l3.1-3.1,3.1,3.1a.941.941,0,0,0,1.331,0l5.647-5.647a.941.941,0,0,0-1.331-1.331Z" transform="translate(-720.529 -588.412)" fill="#313131"/></g><circle cx="1" cy="1" r="1" transform="translate(15.059 22.177)" fill="#313131"/></g></g></svg>