<svg xmlns="http://www.w3.org/2000/svg" width="18" height="18" viewBox="0 0 18 18"><path d="M15612.945-4233a2.13,2.13,0,0,1-2.131-2.131v-1.686h-1.686a2.131,2.131,0,0,1-2.131-2.131v-9.922a2.131,2.131,0,0,1,2.131-2.131h9.924a2.131,2.131,0,0,1,2.129,2.131v1.686h1.686a2.131,2.131,0,0,1,2.131,2.129v9.924a2.131,2.131,0,0,1-2.131,2.131Zm-.93-12.055v9.924a.93.93,0,0,0,.93.93h9.922a.93.93,0,0,0,.658-.271.911.911,0,0,0,.271-.66v-9.924a.93.93,0,0,0-.93-.93h-9.922A.936.936,0,0,0,15612.016-4245.055Zm-3.547-4.474a.924.924,0,0,0-.27.659v9.922a.93.93,0,0,0,.93.93h1.686v-7.038a2.13,2.13,0,0,1,2.131-2.129h7.037v-1.686a.929.929,0,0,0-.93-.93h-9.934A.916.916,0,0,0,15608.469-4249.528Zm8.836,12.49v-2.456h-2.453a.6.6,0,0,1-.6-.6.6.6,0,0,1,.6-.6h2.453v-2.456a.6.6,0,0,1,.6-.6.6.6,0,0,1,.6.6v2.456h2.453a.6.6,0,0,1,.6.6.6.6,0,0,1-.6.6h-2.453v2.456a.6.6,0,0,1-.6.6A.6.6,0,0,1,15617.3-4237.038Z" transform="translate(-15606.998 4251)"/></svg>