<svg xmlns="http://www.w3.org/2000/svg" xmlns:xlink="http://www.w3.org/1999/xlink" width="32" height="32" viewBox="0 0 32 32"><defs><clipPath id="a"><rect width="32" height="32" transform="translate(858 413)" fill="#fff" stroke="#707070" stroke-width="1"/></clipPath></defs><g transform="translate(-858 -413)" clip-path="url(#a)"><g transform="translate(859.882 413.941)"><path d="M442.412,681h-7.529A1.882,1.882,0,0,0,433,682.882v24.471a1.882,1.882,0,0,0,1.882,1.882h7.529a1.882,1.882,0,0,0,1.882-1.882V682.882A1.882,1.882,0,0,0,442.412,681Zm-3.765,24.471a1.882,1.882,0,1,1,1.882-1.882A1.884,1.884,0,0,1,438.647,705.471Z" transform="translate(-432.059 -680.059)" fill="#c9cfff"/><line x2="3.765" transform="translate(4.706 4.706)" fill="#fff"/><path d="M436.941,685.882h3.765a.941.941,0,0,0,0-1.882h-3.765a.941.941,0,1,0,0,1.882" transform="translate(-432.235 -680.235)" fill="#313131"/><line x2="3.765" transform="translate(4.706 8.471)" fill="#fff"/><path d="M436.941,689.882h3.765a.941.941,0,0,0,0-1.882h-3.765a.941.941,0,1,0,0,1.882" transform="translate(-432.235 -680.471)" fill="#313131"/><line x2="3.765" transform="translate(4.706 12.235)" fill="#fff"/><path d="M436.941,693.882h3.765a.941.941,0,0,0,0-1.882h-3.765a.941.941,0,1,0,0,1.882" transform="translate(-432.235 -680.706)" fill="#313131"/><path d="M458.412,681h-7.529A1.882,1.882,0,0,0,449,682.882v24.471a1.882,1.882,0,0,0,1.882,1.882h7.529a1.882,1.882,0,0,0,1.882-1.882V682.882A1.882,1.882,0,0,0,458.412,681Zm-3.765,24.471a1.882,1.882,0,1,1,1.882-1.882A1.884,1.884,0,0,1,454.647,705.471Z" transform="translate(-433 -680.059)" fill="#c9cfff"/><path d="M442.353,680h-7.529A2.823,2.823,0,0,0,432,682.824v24.471a2.823,2.823,0,0,0,2.824,2.824h7.529a2.823,2.823,0,0,0,2.824-2.824V682.824A2.823,2.823,0,0,0,442.353,680Zm.941,27.294a.943.943,0,0,1-.941.941h-7.529a.943.943,0,0,1-.941-.941V682.824a.942.942,0,0,1,.941-.941h7.529a.943.943,0,0,1,.941.941Z" transform="translate(-432 -680)" fill="#313131"/><path d="M438.824,702a2.824,2.824,0,1,0,2.824,2.824A2.826,2.826,0,0,0,438.824,702Zm0,3.765a.941.941,0,1,1,.941-.941A.946.946,0,0,1,438.824,705.765Z" transform="translate(-432.235 -681.294)" fill="#313131"/><path d="M454.824,702a2.824,2.824,0,1,0,2.824,2.824A2.826,2.826,0,0,0,454.824,702Zm0,3.765a.941.941,0,1,1,.941-.941A.946.946,0,0,1,454.824,705.765Z" transform="translate(-433.176 -681.294)" fill="#313131"/><path d="M458.353,680h-7.529A2.823,2.823,0,0,0,448,682.824v24.471a2.823,2.823,0,0,0,2.824,2.824h7.529a2.823,2.823,0,0,0,2.824-2.824V682.824A2.823,2.823,0,0,0,458.353,680Zm.941,27.294a.943.943,0,0,1-.941.941h-7.529a.943.943,0,0,1-.941-.941V682.824a.942.942,0,0,1,.941-.941h7.529a.943.943,0,0,1,.941.941Z" transform="translate(-432.941 -680)" fill="#313131"/><line x2="3.765" transform="translate(19.765 4.706)" fill="#fff"/><path d="M452.941,685.882h3.765a.941.941,0,1,0,0-1.882h-3.765a.941.941,0,0,0,0,1.882" transform="translate(-433.176 -680.235)" fill="#313131"/><line x2="3.765" transform="translate(19.765 8.471)" fill="#fff"/><path d="M452.941,689.882h3.765a.941.941,0,1,0,0-1.882h-3.765a.941.941,0,0,0,0,1.882" transform="translate(-433.176 -680.471)" fill="#313131"/><line x2="3.765" transform="translate(19.765 12.235)" fill="#fff"/><path d="M452.941,693.882h3.765a.941.941,0,1,0,0-1.882h-3.765a.941.941,0,0,0,0,1.882" transform="translate(-433.176 -680.706)" fill="#313131"/></g></g></svg>