<svg xmlns="http://www.w3.org/2000/svg" width="26.456" height="24" viewBox="0 0 26.456 24"><path d="M12.42,23.172V12.754l-2.1,2.1-.02.02a.828.828,0,0,1-1.15-1.191l3.51-3.511v0a.828.828,0,0,1,1.171,0l3.51,3.511.02.02a.828.828,0,1,1-1.191,1.15l-2.1-2.1V23.172a.828.828,0,1,1-1.655,0ZM.039,13.075A5.794,5.794,0,0,1,5.131,6.656a8.277,8.277,0,0,1,16.234.005A5.794,5.794,0,0,1,20.7,18.206H16.559a.828.828,0,0,1,0-1.655H20.7a4.139,4.139,0,1,0,0-8.277.877.877,0,0,1-.872-.737,6.622,6.622,0,0,0-13.156,0,.828.828,0,0,1-.823.737A4.139,4.139,0,1,0,5.8,16.55H9.937a.828.828,0,0,1,0,1.655H5.795A5.794,5.794,0,0,1,.039,13.075Z"/></svg>