<svg xmlns="http://www.w3.org/2000/svg" width="21" height="5.001" viewBox="0 0 21 5.001"><path d="M639.734-14470.732a2.5,2.5,0,0,1,0-3.535,2.5,2.5,0,0,1,3.535,0,2.5,2.5,0,0,1,0,3.535,2.492,2.492,0,0,1-1.767.732A2.493,2.493,0,0,1,639.734-14470.732Zm-8,0a2.5,2.5,0,0,1,0-3.535,2.5,2.5,0,0,1,3.535,0,2.5,2.5,0,0,1,0,3.535,2.5,2.5,0,0,1-1.769.732A2.485,2.485,0,0,1,631.734-14470.732Zm-8,0a2.5,2.5,0,0,1,0-3.535,2.5,2.5,0,0,1,3.535,0,2.5,2.5,0,0,1,0,3.535,2.485,2.485,0,0,1-1.766.732A2.5,2.5,0,0,1,623.731-14470.732Z" transform="translate(-623.001 14475.001)"/></svg>