<svg xmlns="http://www.w3.org/2000/svg" xmlns:xlink="http://www.w3.org/1999/xlink" width="60" height="60" viewBox="0 0 60 60"><defs><clipPath id="a"><rect width="60" height="60" transform="translate(12695 5886)" fill="#fff" stroke="#707070" stroke-width="1"/></clipPath></defs><g transform="translate(-12695 -5886)" clip-path="url(#a)"><g transform="translate(12695 5886.002)"><g transform="translate(1.172 5.857)"><circle cx="26.483" cy="26.483" r="26.483" fill="#ff7b79"/></g><g transform="translate(8.671 13.357)"><circle cx="18.983" cy="18.983" r="18.983" fill="#fff"/></g><g transform="translate(16.171 20.856)"><circle cx="11.484" cy="11.484" r="11.484" fill="#ff7b79"/></g><g transform="translate(23.671 28.356)"><circle cx="3.984" cy="3.984" r="3.984" fill="#fff"/></g><g transform="translate(30.486 1.17)"><g transform="translate(4.198 9.019)"><path d="M0,0H15.7V5.687H0Z" transform="translate(0 11.103) rotate(-45)" fill="#66e0f7"/></g><g transform="translate(0 20.12)"><path d="M80.237,61.454l-4.015-.007-.007-4.015,4.2-4.2,4.022,4.022Z" transform="translate(-76.215 -53.229)" fill="#c193dc"/></g><g transform="translate(14.428)"><g transform="translate(1.634 4.692)"><path d="M124.12,23.885l-7.75-1.634,6.619-6.619a3.318,3.318,0,0,1,4.692,4.692Z" transform="translate(-116.37 -14.66)" fill="#ccf5fc"/></g><path d="M112.285,7.463l1.634,7.75,6.619-6.619A3.318,3.318,0,1,0,115.846,3.9Z" transform="translate(-112.285 -2.93)" fill="#ccf5fc"/></g></g><g transform="translate(0 0)"><path d="M54.056,16.239a1.172,1.172,0,0,0,1.07-.318l3.561-3.561A4.49,4.49,0,0,0,55.513,4.7q-.1,0-.207,0,0-.1,0-.207a4.489,4.489,0,0,0-7.664-3.175L44.085,4.88a1.172,1.172,0,0,0-.318,1.07l.8,3.807-.4.4a27.652,27.652,0,1,0,5.679,5.679l.4-.4ZM38.711,23.66,36.347,21.3l8.8-8.8L45.4,13.7a1.172,1.172,0,0,0,.9.9l1.205.254Zm-.744,8.687a10.31,10.31,0,1,1-6.431-9.555L29.658,24.67a1.172,1.172,0,0,0-.343.831l0,1.966a5.161,5.161,0,1,0,3.218,3.222l1.97,0h0a1.172,1.172,0,0,0,.829-.343l1.876-1.876a10.328,10.328,0,0,1,.754,3.874Zm-3.944-4-2.36,0,0-2.36,3.03-3.03,2.364,2.364Zm-3.556,4a2.813,2.813,0,1,1-1.83-2.635l-1.35,1.35a1.172,1.172,0,1,0,1.657,1.657l1.348-1.348A2.8,2.8,0,0,1,30.467,32.346ZM55.513,7.039A2.146,2.146,0,0,1,57.03,10.7l-3.112,3.112-5.013-1.057,5.089-5.089h0a2.133,2.133,0,0,1,1.517-.628ZM49.3,2.976a2.146,2.146,0,0,1,3.035,3.035h0L47.248,11.1,46.192,6.088Zm3.663,29.37A25.311,25.311,0,1,1,27.655,7.035a25.01,25.01,0,0,1,14.836,4.8l-3.7,3.7A20.159,20.159,0,0,0,10.029,42.128a1.172,1.172,0,1,0,2.048-1.139A17.816,17.816,0,0,1,37.091,17.236l-3.785,3.785a12.648,12.648,0,1,0,5.678,5.68l3.785-3.785A17.817,17.817,0,0,1,19.009,47.923a1.172,1.172,0,1,0-1.139,2.048,20.159,20.159,0,0,0,26.593-28.75l3.7-3.7A25.386,25.386,0,0,1,52.966,32.346Z" transform="translate(0 -0.006)"/><path d="M33.822,111.485a1.172,1.172,0,1,0,.828.343A1.179,1.179,0,0,0,33.822,111.485Z" transform="translate(-19.59 -66.893)"/></g></g></g></svg>