<svg xmlns="http://www.w3.org/2000/svg" width="80" height="50" viewBox="0 0 80 50"><path d="M54.7,0a1.958,1.958,0,0,0-1.1,1.713V12.72H24.243a2.81,2.81,0,0,0-2.315,2.446v19.57c0,.979,1.218,1.224,2.315,1.224H53.6V48.19a1.826,1.826,0,0,0,3.167,1.223L79.428,26.174a1.688,1.688,0,0,0,.208-.207,1.6,1.6,0,0,0-.208-2.239L56.769.611A1.949,1.949,0,0,0,55.428,0ZM14.619,15.166v19.57a1.827,1.827,0,1,0,3.655,0V15.166a1.827,1.827,0,1,0-3.655,0Zm-7.308,0v19.57a1.827,1.827,0,1,0,3.655,0V15.166a1.827,1.827,0,1,0-3.655,0ZM0,15.166v19.57a1.828,1.828,0,1,0,3.656,0V15.166a1.828,1.828,0,1,0-3.656,0Z" transform="translate(80 50) rotate(180)" opacity="0.3"/></svg>