<svg xmlns="http://www.w3.org/2000/svg" xmlns:xlink="http://www.w3.org/1999/xlink" width="32" height="32" viewBox="0 0 32 32"><defs><clipPath id="a"><rect width="32" height="32" fill="none"/></clipPath></defs><g clip-path="url(#a)"><g transform="translate(0 1.934)"><path d="M29.188,15.243H27.224a12.192,12.192,0,0,0-22.48,0H2.813A2.816,2.816,0,0,0,0,18.055v3.75a2.816,2.816,0,0,0,2.813,2.813h3.85l-.4-1.23a10.327,10.327,0,1,1,19.467-6.9l.008.021a8.121,8.121,0,0,1,.439,1.712,10.319,10.319,0,0,1-.462,5.139l0,.011a10.292,10.292,0,0,1-9.689,6.871,2.813,2.813,0,1,0,2.794,2.813V31.791a12.172,12.172,0,0,0,8.4-7.173h1.976A2.816,2.816,0,0,0,32,21.805v-3.75A2.816,2.816,0,0,0,29.188,15.243Z" transform="translate(0 -7.735)"/><path d="M30.25,37.765V39.64h8.438a8.436,8.436,0,1,0-6.636-3.225A1.864,1.864,0,0,1,30.25,37.765Zm11.25-7.5h1.875V32.14H41.5Zm-3.75,0h1.875V32.14H37.75Zm-3.75,0h1.875V32.14H34Z" transform="translate(-22.688 -19.008)"/></g></g></svg>