<svg xmlns="http://www.w3.org/2000/svg" xmlns:xlink="http://www.w3.org/1999/xlink" width="24" height="24" viewBox="0 0 24 24"><defs><clipPath id="a"><rect width="24" height="24" transform="translate(-0.328)"/></clipPath></defs><g transform="translate(0.328)" clip-path="url(#a)"><g transform="translate(0 0.981)"><path d="M22.97,7.569A3.935,3.935,0,0,0,20.43,6.3a4.758,4.758,0,0,0-4.062-2.759A6.115,6.115,0,0,0,5.282,3.532,5.331,5.331,0,0,0,2.529,13.4l-.036.015a.954.954,0,0,0-.5,1.241L3.008,17.12a.956.956,0,0,0,1.247.514l1.263-.519a8.236,8.236,0,0,0,1.321,1.323l-.517,1.249a.946.946,0,0,0-.011.733.968.968,0,0,0,.523.526L9.288,21.96a.95.95,0,0,0,.349.079h.031a.953.953,0,0,0,.882-.593l.521-1.259a8.121,8.121,0,0,0,1.866,0l.523,1.259a.952.952,0,0,0,1.25.52l2.458-1.019a.966.966,0,0,0,.525-.526.936.936,0,0,0-.005-.723l-.521-1.263a8.138,8.138,0,0,0,1.318-1.318l1.251.518a.947.947,0,0,0,.378.079h0a.954.954,0,0,0,.882-.592l1.021-2.462a.953.953,0,0,0,0-.729.943.943,0,0,0-.112-.2A3.957,3.957,0,0,0,22.97,7.569ZM16.046,17.711a.627.627,0,0,0-.22.749l.6,1.444-1.927.8-.6-1.445a.621.621,0,0,0-.575-.383.639.639,0,0,0-.11.01,6.842,6.842,0,0,1-2.425,0,.666.666,0,0,0-.109-.009.62.62,0,0,0-.575.384l-.6,1.441-1.931-.8.6-1.44a.626.626,0,0,0-.218-.748A6.971,6.971,0,0,1,6.235,16a.623.623,0,0,0-.747-.217l-1.444.6-.8-1.931.922-.38a5.357,5.357,0,0,0,1.159.127H6.462a6.108,6.108,0,0,0,11.075,0h2.606l.615.256-.8,1.928-1.443-.6a.623.623,0,0,0-.748.217,6.878,6.878,0,0,1-1.717,1.714ZM7.873,14.192h8.254a4.868,4.868,0,0,1-8.254,0Zm12.364-1.252a.574.574,0,0,0-.06,0c-.046,0-.092,0-.134,0H17.189l-.057,0a.42.42,0,0,0-.058,0H6.927l-.058,0a.382.382,0,0,0-.057,0H5.331a4.107,4.107,0,0,1-1.041-.134l-.01,0A4.086,4.086,0,0,1,5.334,4.776h.02c.092,0,.184,0,.273.012a.578.578,0,0,0,.063,0,.624.624,0,0,0,.582-.4A4.87,4.87,0,0,1,10.82,1.244h.006a4.871,4.871,0,0,1,4.552,3.136.63.63,0,0,0,.58.4h.166a3.5,3.5,0,0,1,3.294,2.331A.623.623,0,0,0,20,7.527h.039a2.713,2.713,0,0,1,.194,5.417Z" transform="translate(-0.002 -0.001)"/><path d="M5.251,7.51a.623.623,0,0,0-.265.059,3.751,3.751,0,0,0-1.325,5.753.619.619,0,0,0,.483.23h0a.622.622,0,0,0,.482-1.014,2.474,2.474,0,0,1-.554-1.568A2.54,2.54,0,0,1,5.517,8.695.623.623,0,0,0,5.251,7.51Z" transform="translate(-0.708 -1.878)"/><path d="M13.336,2.828A3.694,3.694,0,0,0,10,5.608a.623.623,0,0,0,.59.819h0A.621.621,0,0,0,11.182,6,2.481,2.481,0,0,1,13.34,4.072a.622.622,0,1,0,0-1.245Z" transform="translate(-2.493 -0.708)"/></g></g></svg>