<svg xmlns="http://www.w3.org/2000/svg" xmlns:xlink="http://www.w3.org/1999/xlink" width="24" height="24" viewBox="0 0 24 24"><defs><clipPath id="a"><rect width="24" height="24" fill="none"/></clipPath></defs><g opacity="0.5" clip-path="url(#a)"><path d="M2.675,21.024l-.469.469A.783.783,0,0,1,.9,21.142L.027,17.9a.783.783,0,0,1,.959-.959l3.246.87a.783.783,0,0,1,.351,1.309l-.428.428A9.919,9.919,0,1,0,3.579,4.987,1.044,1.044,0,0,1,2.1,3.511a12,12,0,1,1,.572,17.514Zm7.571-7.693a.783.783,0,0,1-.783-.783V7.407a.783.783,0,0,1,1.565,0v4.359h2.558a.783.783,0,0,1,0,1.565Z" transform="translate(1 0)" stroke="#fff" stroke-width="0.4"/></g></svg>