<svg xmlns="http://www.w3.org/2000/svg" xmlns:xlink="http://www.w3.org/1999/xlink" width="32" height="32" viewBox="0 0 32 32"><defs><clipPath id="a"><rect width="32" height="32" fill="none"/></clipPath></defs><g clip-path="url(#a)"><g transform="translate(3.817 0.496)"><path d="M39.031,43.553h0L31.45,42.436l-3.4-6.837a.7.7,0,0,0-1.209,0l-3.4,6.837L15.87,43.553a.7.7,0,0,0-.372,1.209l5.488,5.3-1.3,7.534a.681.681,0,0,0,.977.744l6.79-3.535,6.79,3.535.279.093a.558.558,0,0,0,.419-.139.651.651,0,0,0,.279-.7l-1.3-7.534,5.488-5.3a.7.7,0,0,0-.372-1.209Z" transform="translate(-15.267 -29.434)"/><path d="M60.8,4.518A.521.521,0,0,0,61.322,4V.521a.521.521,0,1,0-1.043,0V4A.521.521,0,0,0,60.8,4.518Z" transform="translate(-48.692)"/><path d="M106.917,19.134a.556.556,0,0,0-.73.1l-2.085,2.78a.521.521,0,0,0,.1.73.556.556,0,0,0,.313.1.486.486,0,0,0,.417-.209l2.085-2.78A.521.521,0,0,0,106.917,19.134Z" transform="translate(-84.243 -15.485)"/><path d="M9.866,22.853a.556.556,0,0,0,.313-.1.521.521,0,0,0,.1-.73L8.2,19.238a.556.556,0,0,0-.73-.1.521.521,0,0,0-.1.73l2.085,2.78A.486.486,0,0,0,9.866,22.853Z" transform="translate(-5.576 -15.485)"/></g></g></svg>