<svg xmlns="http://www.w3.org/2000/svg" xmlns:xlink="http://www.w3.org/1999/xlink" width="100" height="100" viewBox="0 0 100 100"><defs><clipPath id="a"><rect width="100" height="100" transform="translate(1424 666)" fill="#fff" stroke="#707070" stroke-width="1"/></clipPath></defs><g transform="translate(-1424 -666)" clip-path="url(#a)"><g transform="translate(1424 666)"><circle cx="50" cy="50" r="50" fill="#ff6b6b"/><path d="M100,139.5H0a50,50,0,0,0,100,0Z" transform="translate(0 -89.5)" fill="#ff1f3d"/><g transform="translate(38.075 28.138)"><g transform="translate(0 0)"><path d="M95.443,104.21a2.262,2.262,0,0,1-2.261-2.262v-39.2a2.262,2.262,0,0,1,3.586-1.833l27.139,19.6a2.261,2.261,0,0,1,0,3.667l-27.139,19.6A2.26,2.26,0,0,1,95.443,104.21Z" transform="translate(-93.182 -60.487)" fill="#f9f9f9"/></g></g><g transform="translate(38.075 50)"><path d="M93.182,139.5v19.6a2.261,2.261,0,0,0,3.586,1.833l27.139-19.6a2.262,2.262,0,0,0,.937-1.833Z" transform="translate(-93.182 -139.5)" fill="#e2dff4"/></g></g></g></svg>