<svg xmlns="http://www.w3.org/2000/svg" xmlns:xlink="http://www.w3.org/1999/xlink" width="24" height="24" viewBox="0 0 24 24"><defs><clipPath id="a"><rect width="24" height="24" transform="translate(-0.236)"/></clipPath></defs><g transform="translate(0.236)" clip-path="url(#a)"><g transform="translate(0 2.592)"><path d="M6.814,18.814a.76.76,0,0,1-.54-.223L.223,12.539a.764.764,0,0,1,0-1.079L6.274,5.409a.763.763,0,0,1,1.3.539V8.643h9.61a.764.764,0,0,1,.763.763v1.616l4.209-4.209L17.95,2.6V4.22a.764.764,0,0,1-.763.763H10.271a.763.763,0,1,1,0-1.527h6.152V.762a.763.763,0,0,1,1.3-.539l6.05,6.051a.764.764,0,0,1,0,1.079L17.727,13.4a.763.763,0,0,1-1.3-.539V10.17H6.813a.764.764,0,0,1-.763-.763V7.791L1.842,12,6.05,16.209V14.593a.764.764,0,0,1,.763-.763h6.916a.763.763,0,1,1,0,1.527H7.577v2.695a.76.76,0,0,1-.471.705.746.746,0,0,1-.289.058Z" transform="translate(0 0.002)"/></g></g></svg>