<svg xmlns="http://www.w3.org/2000/svg" xmlns:xlink="http://www.w3.org/1999/xlink" width="32" height="32" viewBox="0 0 32 32"><defs><clipPath id="a"><rect width="32" height="32" transform="translate(1146 125)" fill="#fff" stroke="#707070" stroke-width="1"/></clipPath></defs><g transform="translate(-1146 -125)" clip-path="url(#a)"><g transform="translate(1149.765 125.941)"><path d="M742.177,406.176H730.882A1.882,1.882,0,0,1,729,404.294v-7.529A3.765,3.765,0,0,1,732.765,393h7.529a3.765,3.765,0,0,1,3.765,3.765v7.529A1.882,1.882,0,0,1,742.177,406.176Z" transform="translate(-724.294 -392.059)" fill="#c9cfff"/><path d="M740.235,392h-7.529A4.706,4.706,0,0,0,728,396.706v7.529a2.824,2.824,0,0,0,2.824,2.824h11.294a2.824,2.824,0,0,0,2.824-2.824v-7.529A4.706,4.706,0,0,0,740.235,392Zm2.824,12.235a.943.943,0,0,1-.941.941H730.824a.943.943,0,0,1-.941-.941v-7.529a2.825,2.825,0,0,1,2.824-2.824h7.529a2.826,2.826,0,0,1,2.824,2.824Z" transform="translate(-724.235 -392)" fill="#313131"/><line y1="15.059" transform="translate(12.235 14.118)" fill="#97dbff"/><path d="M736.941,406a.942.942,0,0,0-.941.941V422a.941.941,0,1,0,1.882,0V406.941A.942.942,0,0,0,736.941,406Z" transform="translate(-724.706 -392.824)" fill="#313131"/><path d="M743.118,420H729.941a.941.941,0,0,0,0,1.882h13.177a.941.941,0,0,0,0-1.882Z" transform="translate(-724.294 -393.647)" fill="#313131"/><path d="M726,407.941v2.824a2.825,2.825,0,0,0,2.824,2.824h15.059a2.825,2.825,0,0,0,2.824-2.824v-2.824a.941.941,0,0,0-1.882,0v2.824a.943.943,0,0,1-.941.941H728.824a.943.943,0,0,1-.941-.941v-2.824a.941.941,0,0,0-1.882,0Z" transform="translate(-724.118 -392.882)" fill="#313131"/><path d="M725.882,408.824v-.941h0v1.882A1.882,1.882,0,1,0,724,407.882a1.883,1.883,0,0,0,1.882,1.882Z" transform="translate(-724 -392.824)" fill="#313131"/><path d="M747.882,408.824v.941A1.882,1.882,0,1,0,746,407.882a1.883,1.883,0,0,0,1.882,1.882v-1.882h0Z" transform="translate(-725.294 -392.824)" fill="#313131"/><path d="M742.177,411H730.882a1.882,1.882,0,0,0,0,3.765h11.294a1.882,1.882,0,0,0,0-3.765Z" transform="translate(-724.294 -393.118)" fill="#c9cfff"/><path d="M742.118,410H730.824a2.824,2.824,0,1,0,0,5.647h11.294a2.824,2.824,0,1,0,0-5.647Zm0,3.765H730.824a.941.941,0,0,1,0-1.882h11.294a.941.941,0,0,1,0,1.882Z" transform="translate(-724.235 -393.059)" fill="#313131"/><path d="M729.882,422.824v-.941h0v1.882A1.882,1.882,0,1,0,728,421.882a1.883,1.883,0,0,0,1.882,1.882Z" transform="translate(-724.235 -393.647)" fill="#313131"/><path d="M743.882,422.824v-.941h0v1.882A1.882,1.882,0,1,0,742,421.882a1.883,1.883,0,0,0,1.882,1.882Z" transform="translate(-725.059 -393.647)" fill="#313131"/></g></g></svg>