<svg xmlns="http://www.w3.org/2000/svg" width="20" height="24" viewBox="0 0 20 24"><path d="M12.575,24H3.712A3.735,3.735,0,0,1,0,20.25V7.547A3.735,3.735,0,0,1,3.712,3.8h8.863a3.735,3.735,0,0,1,3.712,3.75v12.7A3.735,3.735,0,0,1,12.575,24ZM3.712,5.672A1.868,1.868,0,0,0,1.856,7.547v12.7a1.868,1.868,0,0,0,1.856,1.875h8.863a1.868,1.868,0,0,0,1.856-1.875V7.547a1.868,1.868,0,0,0-1.856-1.875ZM20,17.906V3.75A3.735,3.735,0,0,0,16.288,0H5.986a.933.933,0,0,0-.928.938.933.933,0,0,0,.928.938h10.3A1.868,1.868,0,0,1,18.144,3.75V17.906a.928.928,0,1,0,1.856,0Zm0,0"/></svg>