<svg xmlns="http://www.w3.org/2000/svg" width="80" height="50" viewBox="0 0 80 50"><path d="M54.7,50a1.956,1.956,0,0,1-1.1-1.712V37.28H24.242a2.811,2.811,0,0,1-2.314-2.446V15.265c0-.979,1.217-1.224,2.314-1.224H53.6V1.81A1.827,1.827,0,0,1,56.77.588L79.428,23.826a1.708,1.708,0,0,1,.209.207,1.6,1.6,0,0,1-.209,2.239L56.77,49.389A1.954,1.954,0,0,1,55.428,50ZM14.619,34.835V15.265a1.826,1.826,0,1,1,3.652,0v19.57a1.826,1.826,0,1,1-3.652,0Zm-7.309,0V15.265a1.827,1.827,0,1,1,3.654,0v19.57a1.827,1.827,0,1,1-3.654,0ZM0,34.835V15.265a1.827,1.827,0,1,1,3.654,0v19.57a1.827,1.827,0,1,1-3.654,0Z" fill="#848ddb"/></svg>