<svg xmlns="http://www.w3.org/2000/svg" xmlns:xlink="http://www.w3.org/1999/xlink" width="32" height="32" viewBox="0 0 32 32"><defs><clipPath id="a"><rect width="32" height="32" transform="translate(474 221)" fill="#fff" stroke="#707070" stroke-width="1"/></clipPath></defs><g transform="translate(-474 -221)" clip-path="url(#a)"><g transform="translate(475.882 221.941)"><path d="M56.765,515H75.588a3.765,3.765,0,0,1-3.765,3.765H53A3.765,3.765,0,0,0,56.765,515Z" transform="translate(-48.294 -489.588)" fill="#313131"/><path d="M75.96,512.746a.948.948,0,0,0-.665-.276H72.471V490.824A2.825,2.825,0,0,0,69.647,488H50.824A2.825,2.825,0,0,0,48,490.824v22.588a4.706,4.706,0,0,0,4.706,4.706H71.53a4.706,4.706,0,0,0,4.7-4.706A.948.948,0,0,0,75.96,512.746Zm-20.43.665a2.824,2.824,0,1,1-5.647,0V490.824a.942.942,0,0,1,.941-.941H69.647a.942.942,0,0,1,.941.941v21.647H56.471a.942.942,0,0,0-.941.941Zm16,2.824H56.449a3.529,3.529,0,0,0,.868-1.882H74.179A2.818,2.818,0,0,1,71.529,516.235Z" transform="translate(-48 -488)"/><path d="M247,798h16a1,1,0,0,0,0-2H247a1,1,0,0,0,0,2" transform="translate(-242.883 -787.941)"/><path d="M247,802h8a1,1,0,0,0,0-2h-8a1,1,0,0,0,0,2" transform="translate(-242.883 -787.941)"/></g></g></svg>