<svg xmlns="http://www.w3.org/2000/svg" xmlns:xlink="http://www.w3.org/1999/xlink" width="32" height="32" viewBox="0 0 32 32"><defs><clipPath id="a"><rect width="32" height="32" transform="translate(474 509)" fill="#fff" stroke="#707070" stroke-width="1"/></clipPath></defs><g transform="translate(-474 -509)" clip-path="url(#a)"><g transform="translate(474.941 511.823)"><path d="M52.765,803.588V790.412a1.882,1.882,0,0,1,1.882-1.882H75.353v-1.882a1.882,1.882,0,0,0-1.882-1.882H58.412v-1.882A1.882,1.882,0,0,0,56.529,781H50.882A1.882,1.882,0,0,0,49,782.882v20.706a1.882,1.882,0,1,0,3.765,0Z" transform="translate(-48.059 -780.059)" fill="#313131"/><path d="M76.235,787.7v-1.114a2.824,2.824,0,0,0-2.824-2.823H59.294v-.941A2.825,2.825,0,0,0,56.471,780H50.824A2.825,2.825,0,0,0,48,782.823v20.706a2.824,2.824,0,0,0,2.823,2.823H75.294a2.824,2.824,0,0,0,2.824-2.823V790.353A2.815,2.815,0,0,0,76.235,787.7Zm-24.374,1.956a2.775,2.775,0,0,0-.1.695v13.177a.954.954,0,0,1-.941.941.943.943,0,0,1-.941-.941V782.823a.942.942,0,0,1,.941-.941h5.647a.942.942,0,0,1,.941.941v1.882a.942.942,0,0,0,.941.941H73.412a.943.943,0,0,1,.941.941v.941H54.588a2.8,2.8,0,0,0-2.727,2.129Zm24.374,13.871a.943.943,0,0,1-.941.941H53.473a2.811,2.811,0,0,0,.174-.941V790.353a.918.918,0,0,1,.155-.487.889.889,0,0,1,.786-.455H75.294a.942.942,0,0,1,.941.941Z" transform="translate(-48 -780)"/></g></g></svg>