<svg xmlns="http://www.w3.org/2000/svg" xmlns:xlink="http://www.w3.org/1999/xlink" width="60" height="60" viewBox="0 0 60 60"><defs><clipPath id="a"><rect width="60" height="60" transform="translate(12500 5703)" fill="#fff" stroke="#707070" stroke-width="1"/></clipPath></defs><g transform="translate(-12500 -5703)" clip-path="url(#a)"><g transform="translate(12500 5708.5)"><path d="M88.5,16.25h-34a2.006,2.006,0,0,0-2,2v10h16a2,2,0,0,1,2,2v14h6l7,7v-7h5a2.006,2.006,0,0,0,2-2v-24A2.006,2.006,0,0,0,88.5,16.25Z" transform="translate(-31.5 -15.25)" fill="#efefef"/><path d="M38.5,46.25H4.5a2,2,0,0,0-2,2v24a2,2,0,0,0,2,2h5v7l7-7h22a2,2,0,0,0,2-2v-24A2,2,0,0,0,38.5,46.25Z" transform="translate(-1.5 -33.25)" fill="#848ddb"/><g transform="translate(0 0)"><path d="M57,13.75H23a3,3,0,0,0-3,3v9H3a3,3,0,0,0-3,3v24a3,3,0,0,0,3,3H7v6a1,1,0,0,0,1.707.707l6.707-6.707H37a3,3,0,0,0,3-3v-9h4.586l6.707,6.707A1,1,0,0,0,53,49.75v-6h4a3,3,0,0,0,3-3v-24A3,3,0,0,0,57,13.75Zm-19,39a1,1,0,0,1-1,1H15a1,1,0,0,0-.707.293L9,59.336V54.75a1,1,0,0,0-1-1H3a1,1,0,0,1-1-1v-24a1,1,0,0,1,1-1H37a1,1,0,0,1,1,1Zm20-12a1,1,0,0,1-1,1H52a1,1,0,0,0-1,1v4.586l-5.293-5.293A1,1,0,0,0,45,41.75H40v-13a3,3,0,0,0-3-3H22v-9a1,1,0,0,1,1-1H57a1,1,0,0,1,1,1Z" transform="translate(0 -13.75)" fill="#231f20"/><path d="M15,63.75h2v2H15Z" transform="translate(-9 -43.75)" fill="#231f20"/><path d="M25,63.75H49v2H25Z" transform="translate(-15 -43.75)" fill="#231f20"/><path d="M15,78.75H43v2H15Z" transform="translate(-9 -52.75)" fill="#231f20"/><path d="M15,93.75H43v2H15Z" transform="translate(-9 -61.75)" fill="#231f20"/><path d="M75,28.75H99v2H75Z" transform="translate(-45 -22.75)" fill="#231f20"/><path d="M105,43.75h12v2H105Z" transform="translate(-63 -31.75)" fill="#231f20"/><path d="M105,58.75h12v2H105Z" transform="translate(-63 -40.75)" fill="#231f20"/><path d="M65,28.75h2v2H65Z" transform="translate(-39 -22.75)" fill="#231f20"/></g></g></g></svg>