<svg xmlns="http://www.w3.org/2000/svg" xmlns:xlink="http://www.w3.org/1999/xlink" width="32" height="32" viewBox="0 0 32 32"><defs><clipPath id="a"><rect width="32" height="32" transform="translate(-1686 13508)" fill="none"/></clipPath></defs><g transform="translate(1686 -13508)" clip-path="url(#a)"><g transform="translate(-1686 13511.427)"><path d="M20.539,18.342V15.871a2.164,2.164,0,0,0-2.164-2.164H2.164A2.164,2.164,0,0,0,0,15.871v8.306a2.164,2.164,0,0,0,2.164,2.164H3.757V22.127a3.789,3.789,0,0,1,3.785-3.785Z" transform="translate(0 -13.707)"/><path d="M42.049,43.367V40.9a2.164,2.164,0,0,0-2.164-2.164H23.674A2.164,2.164,0,0,0,21.51,40.9V49.2a2.164,2.164,0,0,0,2.164,2.164h2.3V47.151a3.789,3.789,0,0,1,3.785-3.785Z" transform="translate(-16.133 -32.475)"/><path d="M64.219,63.755H48.009a2.164,2.164,0,0,0-2.164,2.164v8.306a2.164,2.164,0,0,0,2.164,2.164H64.219a2.164,2.164,0,0,0,2.164-2.164V65.919A2.164,2.164,0,0,0,64.219,63.755Z" transform="translate(-34.383 -51.243)"/></g></g></svg>