<svg xmlns="http://www.w3.org/2000/svg" width="24" height="24" viewBox="0 0 24 24"><path d="M858.856,275.106a2.124,2.124,0,0,0-.673-1.156c-.277-.234-.562-.46-.847-.685l-.942-.754c-.353-.285-.707-.57-1.082-.867a.112.112,0,0,1-.046-.1v-1.9a1.847,1.847,0,0,0-.263-.915,2.2,2.2,0,0,0-2.011-1.139c-1.344-.007-2.689,0-4.033,0l-2.016,0c-2.005,0-4.011-.006-6.005-.011a2.335,2.335,0,0,0-1.484.471,2.057,2.057,0,0,0-.846,1.634c-.009.605-.009,1.21,0,1.839a.144.144,0,0,1-.074.138c-.179.127-.349.265-.516.4-.641.537-1.328,1.088-2.095,1.678a2.392,2.392,0,0,0-.981,1.965c-.005.594-.006,1.3.024,2,.014.337,0,.673-.009,1.009-.009.236-.017.472-.017.706q0,2.022,0,4.044l0,2.018a3,3,0,0,0,.189,1.076,2.132,2.132,0,0,0,1.91,1.348c2.079.006,4.156.005,6.249,0a.147.147,0,0,1,.122.062c.114.147.241.287.366.426l1.71,1.9c.291.33.581.659.884.976a.82.82,0,0,0,.559.307h.005a.846.846,0,0,0,.578-.311c.263-.273.514-.558.764-.843l.816-.914c.454-.5.908-1.009,1.371-1.533a.171.171,0,0,1,.152-.067h6.2a2,2,0,0,0,1.286-.473,2.253,2.253,0,0,0,.831-1.824V276.2A4.589,4.589,0,0,0,858.856,275.106Zm-15.8,11.407h-5.579a1.694,1.694,0,0,1-.616-.065.715.715,0,0,1-.43-.458,1.993,1.993,0,0,1-.064-.651c0-.612,0-2.13,0-3.8,0-2.376.006-5.068,0-5.927a.854.854,0,0,1,.371-.685q1.23-.979,2.465-1.967l3.1,3.71a.808.808,0,0,0,.627.361h.021a.761.761,0,0,0,.681-.495c.111-.219.221-.44.329-.66l.086-.171.008.009c.2.241.4.483.614.731a.162.162,0,0,1,.038.149c-.059.339-1.171,7.038-1.545,9.284Zm5.158-11.083a.394.394,0,0,1-.4.17c-.118-.01-.237-.013-.355-.013l-.174,0h-.351c-.373,0-.746,0-1.145-.006-.349-.427-.7-.853-1.046-1.285.181-.35.355-.7.528-1.055l.221-.447c.02-.044.041-.088.065-.135.341,0,.682,0,1.021,0,.578,0,1.158-.007,1.736.01l.074.152c.241.49.482.98.734,1.5l-.218.255C848.667,274.848,848.433,275.123,848.211,275.43Zm-6.942-5.031,2.471,1.534c.15.093.3.188.453.287-.178.351-.353.7-.527,1.056l-.352.708c-.113.228-.228.454-.343.679l-.187.366-2.744-3.3a.149.149,0,0,1-.034-.109v-.895h0c0-.119,0-.249,0-.385,0-.2,0-.419.012-.623a.8.8,0,0,1,.017-.1Q840.652,270.015,841.269,270.4Zm12.556-.778a.512.512,0,0,1,.011.083c0,.217,0,.436,0,.655v.325l0,.319c0,.213-.006.425,0,.623a.355.355,0,0,1-.127.253l-1.436,1.716c-.4.474-.8.948-1.2,1.428l-1.15-2.3c-.082-.167-.165-.334-.254-.5l2.746-1.717C852.879,270.218,853.339,269.931,853.825,269.621Zm-2.516-.1-2.36,1.471c-.131.081-.264.163-.461.263h-1.033c-.69,0-1.378,0-2.032,0a.637.637,0,0,1-.34-.16q-1.031-.638-2.061-1.285l-1.266-.789H852.1Q851.707,269.278,851.309,269.524Zm-6.867,17.313a.574.574,0,0,1,.01-.1,3.091,3.091,0,0,0,.077-.424c.011-.073.02-.146.033-.218.033-.17.059-.341.087-.512s.051-.316.08-.472c.017-.091.032-.182.048-.274.022-.135.044-.271.075-.4.039-.166.063-.335.086-.5.015-.108.03-.215.049-.321.079-.426.972-5.793,1.1-6.585H847.1c.22,0,.44,0,.665,0,.154.939,1.572,9.546,1.655,9.8.05.151,0,.219-.2.422-.041.043-.082.085-.12.128-.422.472-.848.941-1.273,1.409l-.809.9-.1.109-2.505-2.779A1.118,1.118,0,0,0,844.442,286.837Zm4.759-10.391c.18-.21.356-.423.533-.637l.091-.111.038.075c.148.293.3.587.441.857a.683.683,0,0,0,1.145.163c.164-.177.32-.364.474-.551l2.6-3.127.1-.111.044-.05c.215.174.43.345.646.517l.907.728c.313.253.626.506.943.754a.907.907,0,0,1,.343.767l0,6.391c0,1.179,0,2.358,0,3.559a.8.8,0,0,1-.41.745.563.563,0,0,1-.264.077l-6.015,0c-.153-.958-1.585-9.538-1.649-9.92A.14.14,0,0,1,849.2,276.446Z" transform="translate(-834.938 -267.579)" opacity="0.5"/></svg>