<svg xmlns="http://www.w3.org/2000/svg" xmlns:xlink="http://www.w3.org/1999/xlink" width="24" height="24" viewBox="0 0 24 24"><defs><clipPath id="a"><rect width="24" height="24"/></clipPath></defs><g clip-path="url(#a)"><g transform="translate(3.433)"><path d="M3.106,6.365a.7.7,0,0,0,.573-.813,3.54,3.54,0,1,1,6.976-.008.7.7,0,0,0,1.386.234,4.946,4.946,0,1,0-9.748.013.7.7,0,0,0,.813.574Z" transform="translate(-0.556)"/><path d="M14.094,12.233a2.109,2.109,0,0,0-2.812-.937,2.109,2.109,0,0,0-2.57-1.039V5.951A2.141,2.141,0,0,0,6.655,3.813,2.109,2.109,0,0,0,4.482,5.923V16.754l-.825-.865A2.138,2.138,0,0,0,.7,15.759a2.109,2.109,0,0,0-.114,3.02L5.33,23.841a3.529,3.529,0,0,0,2.565,1.112H13.62a3.519,3.519,0,0,0,3.516-3.516V14.125A2.111,2.111,0,0,0,14.094,12.233Zm1.635,9.2a2.112,2.112,0,0,1-2.109,2.109H7.895a2.116,2.116,0,0,1-1.539-.667L1.6,17.81A.7.7,0,0,1,1.641,16.8a.723.723,0,0,1,1,.058l2.038,2.134a.7.7,0,0,0,1.212-.486V5.922a.706.706,0,0,1,.728-.7.726.726,0,0,1,.688.732c0,7.737-.013,4.23-.013,8.408a.71.71,0,1,0,1.419,0V12.116a.7.7,0,0,1,1.392.134v2.109a.7.7,0,0,0,1.406,0V13.187a.7.7,0,0,1,1.406,0v1.172a.7.7,0,0,0,1.406,0v-.234a.7.7,0,0,1,1.406,0Z" transform="translate(-0.002 -0.953)"/></g></g></svg>