<svg xmlns="http://www.w3.org/2000/svg" xmlns:xlink="http://www.w3.org/1999/xlink" width="24" height="24" viewBox="0 0 24 24"><defs><clipPath id="a"><rect width="24" height="24" fill="none"/></clipPath></defs><g opacity="0.5" clip-path="url(#a)"><g transform="translate(0.683 0.706)"><path d="M644.37,419.689l2-6.988a.706.706,0,0,1,1.178-.3l4.991,4.991a.706.706,0,0,1-.3,1.178l-6.988,2a.705.705,0,0,1-.872-.872Zm3.024-5.447-1.318,4.612,4.613-1.318Z" transform="translate(-644.343 -397.938)"/><path d="M626.079,406.963l13.038-13.038a.707.707,0,0,1,1,0l4.991,4.992a.706.706,0,0,1,0,1l-13.038,13.038a.706.706,0,0,1-1,0l-4.991-4.991a.705.705,0,0,1,0-1Zm5.49,4.492,12.04-12.04-3.993-3.993-12.04,12.04Z" transform="translate(-623.876 -392.505)"/><path d="M624.391,393.448l.346-.385.027-.029a3.529,3.529,0,0,1,4.991,0l1,1h0a3.522,3.522,0,0,1,.025,4.961l0,0-.345.386a.707.707,0,0,1-1.026.028l-4.991-4.991A.707.707,0,0,1,624.391,393.448Zm5.364,1.583-1-1a2.1,2.1,0,0,0-2.848-.12l3.966,3.966a2.1,2.1,0,0,0-.12-2.848l.5-.5Z" transform="translate(-609.177 -392)"/><path d="M652.62,419.467l1,1a.706.706,0,1,1-1,1l-1-1a.706.706,0,1,1,1-1" transform="translate(-650.416 -400.018)"/></g></g></svg>