<svg xmlns="http://www.w3.org/2000/svg" width="20" height="20" viewBox="0 0 20 20"><path d="M.018,17.661,0,3.924A2.344,2.344,0,0,1,2.339,1.579h.937V.509A.493.493,0,0,1,3.766.016h.575a.493.493,0,0,1,.494.492V1.576l10.3-.013V.494A.493.493,0,0,1,15.631,0h.575A.493.493,0,0,1,16.7.492V1.56h.937A2.344,2.344,0,0,1,19.982,3.9L20,17.636a2.344,2.344,0,0,1-2.339,2.345L2.362,20A2.344,2.344,0,0,1,.018,17.661Zm1.551-.013a.781.781,0,0,0,.781.781h15.3a.782.782,0,0,0,.781-.781V7.345H1.569ZM2.341,3.14a.781.781,0,0,0-.78.782l0,1.873,16.86-.022,0-1.873a.781.781,0,0,0-.782-.78H16.7V4.19a.493.493,0,0,1-.492.494h-.575a.493.493,0,0,1-.494-.492V3.124l-10.3.013V4.2a.493.493,0,0,1-.492.494H3.772a.493.493,0,0,1-.494-.492V3.139Zm10,12.869a.781.781,0,1,1,.781.781A.781.781,0,0,1,12.341,16.009Zm-3.122,0A.781.781,0,1,1,10,16.79.781.781,0,0,1,9.218,16.009Zm-3.122,0a.781.781,0,1,1,.781.781A.781.781,0,0,1,6.1,16.009Zm-3.122,0a.781.781,0,1,1,.781.781A.781.781,0,0,1,2.974,16.009Zm12.489-3.122a.781.781,0,1,1,.781.781A.781.781,0,0,1,15.463,12.887Zm-3.122,0a.781.781,0,1,1,.781.781A.781.781,0,0,1,12.341,12.887Zm-3.122,0a.781.781,0,1,1,.781.781A.781.781,0,0,1,9.218,12.887Zm-3.122,0a.781.781,0,1,1,.781.781A.781.781,0,0,1,6.1,12.887Zm-3.122,0a.781.781,0,1,1,.781.781A.781.781,0,0,1,2.974,12.887ZM15.463,9.765a.781.781,0,1,1,.781.781A.781.781,0,0,1,15.463,9.765Zm-3.122,0a.781.781,0,1,1,.781.781A.781.781,0,0,1,12.341,9.765Zm-3.122,0a.781.781,0,1,1,.781.781A.781.781,0,0,1,9.218,9.765Zm-3.122,0a.781.781,0,1,1,.781.781A.781.781,0,0,1,6.1,9.765Zm-3.122,0a.781.781,0,1,1,.781.781A.781.781,0,0,1,2.974,9.765Z" opacity="0.5"/></svg>