<svg xmlns="http://www.w3.org/2000/svg" width="130" height="150" viewBox="0 0 130 150"><g transform="translate(-15890 7072)"><path d="M65.321,38.641A4.321,4.321,0,0,0,61,42.962V60.243a4.321,4.321,0,1,0,8.641,0V42.962A4.321,4.321,0,0,0,65.321,38.641Zm38.885,38.885a4.321,4.321,0,0,0-8.641,0V94.808a4.321,4.321,0,0,0,8.641,0Zm-38.885-4.32A4.321,4.321,0,0,0,61,77.526V94.808a4.321,4.321,0,0,0,8.641,0V77.526A4.321,4.321,0,0,0,65.321,73.205ZM91.243,30H73.962a4.321,4.321,0,0,0,0,8.641H91.243a4.321,4.321,0,0,0,0-8.641Zm38.4,6.313A4.317,4.317,0,0,0,125.808,30H108.526a4.321,4.321,0,1,0,0,8.641h15.492L102.94,59.719a4.32,4.32,0,1,0,6.11,6.11l22.344-22.344a4.317,4.317,0,0,0-1.754-7.173Zm-3.831,62.815H108.526a4.321,4.321,0,1,0,0,8.641h17.282a4.321,4.321,0,0,0,0-8.641Z" transform="translate(15837.641 -7093.359)" fill="#848ddb" opacity="0.3"/><path d="M44,0A13.108,13.108,0,0,0,31,13.184a13,13,0,1,0,26,0A13.108,13.108,0,0,0,44,0Zm0,35.156A13.185,13.185,0,1,0,57,48.34,13.108,13.108,0,0,0,44,35.156Zm0,35.156A13.185,13.185,0,1,0,57,83.5,13.108,13.108,0,0,0,44,70.313ZM78.667,0a13.108,13.108,0,0,0-13,13.184,13,13,0,1,0,26,0A13.108,13.108,0,0,0,78.667,0Zm0,35.156a13.185,13.185,0,1,0,13,13.184A13.108,13.108,0,0,0,78.667,35.156Zm0,35.156a13.185,13.185,0,1,0,13,13.184A13.108,13.108,0,0,0,78.667,70.313Zm34.667-43.945a13.108,13.108,0,0,0,13-13.184,13,13,0,1,0-26,0A13.108,13.108,0,0,0,113.333,26.367Zm17.333,8.789a30.584,30.584,0,0,0-30.333,30.762v79.687A4.364,4.364,0,0,0,104.667,150h52A4.364,4.364,0,0,0,161,145.605V65.918A30.584,30.584,0,0,0,130.667,35.156Zm8.667,88.184H122a4.395,4.395,0,0,1,0-8.789h17.333a4.395,4.395,0,0,1,0,8.789ZM143.667,83.5a4.364,4.364,0,0,1-4.333,4.395H122a4.364,4.364,0,0,1-4.333-4.395V65.918a13,13,0,1,1,26,0Z" transform="translate(15859 -7072)" fill="#848ddb"/></g></svg>