<svg xmlns="http://www.w3.org/2000/svg" width="18" height="10" viewBox="0 0 18 10"><path d="M23.675,136.4h0a.8.8,0,0,0-1.122,0l-3.928,3.889a.78.78,0,0,0,0,1.111h0a.8.8,0,0,0,1.122,0l3.928-3.889A.78.78,0,0,0,23.675,136.4Zm3.386-.014-7.737,7.733a.2.2,0,0,1-.276,0l-2.667-2.641a.8.8,0,0,0-1.122,0h0a.78.78,0,0,0,0,1.111l3.367,3.333a.8.8,0,0,0,1.122,0l8.477-8.393a.78.78,0,0,0-.02-1.13l-.039-.036A.8.8,0,0,0,27.06,136.388Zm-16.371,6.2,3.367,3.333a.8.8,0,0,0,1.122,0h0a.78.78,0,0,0,0-1.111l-3.367-3.333a.8.8,0,0,0-1.122,0h0A.78.78,0,0,0,10.689,142.592Z" transform="translate(-10.457 -136.156)" fill="#848ddb"/></svg>