<svg xmlns="http://www.w3.org/2000/svg" width="58" height="56" viewBox="0 0 58 56"><g transform="translate(-0.001)"><path d="M11.858,56a5.118,5.118,0,0,1-5.283-4.921V48.672h44.85v2.406A5.117,5.117,0,0,1,46.142,56ZM5.283,45.391A5.118,5.118,0,0,1,0,40.469V20.781a5.119,5.119,0,0,1,5.283-4.922H52.717A5.118,5.118,0,0,1,58,20.781V40.469a5.118,5.118,0,0,1-5.283,4.922ZM6.575,12.578V4.922A5.119,5.119,0,0,1,11.858,0H35.3a9.165,9.165,0,0,1,6.39,2.559L49.01,9.748a8.09,8.09,0,0,1,1.882,2.831Z" transform="translate(0.001)"/><text transform="translate(29.001 37)" fill="#fff" font-size="18" font-family="Lato-Bold, Lato" font-weight="700"><tspan x="-22.716" y="0">PPTX</tspan></text></g></svg>