<svg xmlns="http://www.w3.org/2000/svg" xmlns:xlink="http://www.w3.org/1999/xlink" width="32" height="32" viewBox="0 0 32 32"><defs><clipPath id="a"><rect width="32" height="32" transform="translate(570 221)" fill="#fff" stroke="#707070" stroke-width="1"/></clipPath></defs><g transform="translate(-570 -221)" clip-path="url(#a)"><g transform="translate(574.706 221.941)"><line x2="20.706" transform="translate(0.941 0.941)" fill="#fff"/><line x2="20.706" transform="translate(0.941 29.176)" fill="#fff"/><path d="M159.978,514.38a1.882,1.882,0,0,0-2.662,0L153,518.7h11.294Z" transform="translate(-147.353 -489.519)" fill="#313131"/><path d="M159.919,514.321l.665-.665a2.822,2.822,0,0,0-3.992,0l-4.316,4.316a.941.941,0,0,0,.665,1.607h11.294a.941.941,0,0,0,.665-1.607l-4.316-4.316-.665.665-.665.665,4.316,4.316.665-.665V517.7H152.941v.941l.665.665,4.316-4.316a.941.941,0,0,1,1.331,0Z" transform="translate(-147.294 -489.46)" fill="#313131"/><path d="M152.162,499a7.383,7.383,0,0,0,12.872,0Z" transform="translate(-147.304 -488.647)" fill="#313131"/><line y2="7.529" transform="translate(11.294 16)" fill="#80c9ff"/><path d="M147.941,489.882h1.882v4.706a8.467,8.467,0,0,0,6.186,8.15c.034.01.069.018.1.027a8.478,8.478,0,0,0,.88.184c.084.013.166.027.25.038a7.65,7.65,0,0,0,2.1,0c.085-.01.167-.024.25-.038a8.479,8.479,0,0,0,.88-.184c.035-.009.07-.017.1-.027a8.467,8.467,0,0,0,6.186-8.15v-4.706h1.882a.941.941,0,1,0,0-1.882H147.941a.941.941,0,1,0,0,1.882Zm12.136,11.041c-.042.012-.086.022-.129.033a6.2,6.2,0,0,1-.627.131c-.075.011-.15.025-.225.035a5.93,5.93,0,0,1-1.606,0c-.075-.009-.15-.024-.225-.035a6.2,6.2,0,0,1-.627-.131c-.043-.011-.087-.021-.129-.033a5,5,0,0,1-2.746-1.629h9.06A5,5,0,0,1,160.078,500.923Zm-8.372-11.041h13.176v4.706a6.578,6.578,0,0,1-.646,2.824H152.352a6.578,6.578,0,0,1-.646-2.824Z" transform="translate(-147 -488)"/><path d="M168.647,517.176h-1.882v-4.706a8.471,8.471,0,0,0-16.941,0v4.706h-1.882a.941.941,0,0,0,0,1.882h20.706a.941.941,0,0,0,0-1.882Zm-3.765,0H151.706v-4.706a6.588,6.588,0,0,1,13.176,0Z" transform="translate(-147 -488.941)"/><path d="M158.941,506a.942.942,0,0,0-.941.941v1.129a.941.941,0,0,0,1.882,0v-1.129A.942.942,0,0,0,158.941,506Z" transform="translate(-147.647 -489.059)"/><path d="M158.941,510a.942.942,0,0,0-.941.941v.941a.941.941,0,0,0,1.882,0v-.941A.942.942,0,0,0,158.941,510Z" transform="translate(-147.647 -489.294)"/></g></g></svg>