<svg xmlns="http://www.w3.org/2000/svg" width="18" height="18" viewBox="0 0 18 18"><g transform="translate(-600.85 -167.85)"><path d="M617.719,178.67H612.8a1.131,1.131,0,0,0-1.131,1.131v4.918a1.131,1.131,0,0,0,1.131,1.131h4.918a1.131,1.131,0,0,0,1.131-1.131V179.8A1.131,1.131,0,0,0,617.719,178.67Zm-.147,1.278v4.624h-4.624v-4.624Z"/><path d="M606.9,175.03a1.131,1.131,0,0,0,1.131-1.131v-4.918a1.131,1.131,0,0,0-1.131-1.131h-4.918a1.131,1.131,0,0,0-1.131,1.131V173.9a1.131,1.131,0,0,0,1.131,1.131Zm-4.77-1.278v-4.623h4.623v4.623Z"/><path d="M605.079,178.106l1.448,1.446.9-.9-2.713-2.713a.392.392,0,0,0-.554,0l-2.713,2.713.9.906,1.447-1.448v5.486a.291.291,0,0,0,.291.291h5.889V182.6h-4.9Z"/><path d="M617.719,167.85H612.8a1.131,1.131,0,0,0-1.131,1.131V173.9a1.131,1.131,0,0,0,1.131,1.131h4.918a1.131,1.131,0,0,0,1.131-1.131v-4.918A1.131,1.131,0,0,0,617.719,167.85Zm-.147,1.279v4.623h-4.624v-4.623Z"/></g></svg>