<svg xmlns="http://www.w3.org/2000/svg" xmlns:xlink="http://www.w3.org/1999/xlink" width="32" height="32" viewBox="0 0 32 32"><defs><clipPath id="a"><rect width="32" height="32" transform="translate(1050 413)" fill="#fff" stroke="#707070" stroke-width="1"/></clipPath></defs><g transform="translate(-1050 -413)" clip-path="url(#a)"><g transform="translate(1050.941 417.706)"><path d="M647.706,702.176a5.647,5.647,0,0,1-5.647,5.647h-9.412A5.647,5.647,0,0,1,627,702.176V689h20.706Z" transform="translate(-624.176 -688.059)" fill="#c9cfff"/><path d="M648.471,702.118v-2.823h.941a4.706,4.706,0,0,0,4.706-4.706,4.823,4.823,0,0,0-.064-.783,4.541,4.541,0,0,0-1.717-2.852,5.1,5.1,0,0,0-3.127-1.071h-.74v-.941a.942.942,0,0,0-.941-.941H626.824a.942.942,0,0,0-.941.941v13.176a6.589,6.589,0,0,0,6.588,6.588h-7.529a.941.941,0,0,0,0,1.882h24.471a.941.941,0,0,0,0-1.882h-7.529A6.589,6.589,0,0,0,648.471,702.118Zm0-10.353h.74a3.223,3.223,0,0,1,1.968.673,2.652,2.652,0,0,1,1.017,1.67l.04.481a2.828,2.828,0,0,1-2.824,2.823h-.941Zm-6.588,15.059h-9.412a4.712,4.712,0,0,1-4.706-4.706V689.882h18.824v12.235A4.713,4.713,0,0,1,641.882,706.824Z" transform="translate(-624 -688)" fill="#313131"/></g></g></svg>