<svg xmlns="http://www.w3.org/2000/svg" xmlns:xlink="http://www.w3.org/1999/xlink" width="26" height="26" viewBox="0 0 26 26"><defs><clipPath id="a"><rect width="26" height="26" transform="translate(762 125)" fill="#fff" stroke="#707070" stroke-width="1"/></clipPath></defs><g transform="translate(-762 -125)" clip-path="url(#a)"><g transform="translate(765.824 125.765)"><path d="M349.176,392a9.635,9.635,0,0,0-1.971.206,9.146,9.146,0,0,0-7.042,7.215,9.549,9.549,0,0,0-.164,1.756,9.16,9.16,0,0,0,4.235,7.725.694.694,0,0,1,.353.574v1.642a.765.765,0,0,0,.765.765H353a.765.765,0,0,0,.765-.765v-1.576a.826.826,0,0,1,.414-.679,9.172,9.172,0,0,0-5-16.863Zm4.167,15.581a2.355,2.355,0,0,0-1.108,1.961v.811h-6.118v-.877a2.221,2.221,0,0,0-1.058-1.862,7.63,7.63,0,0,1-3.531-6.437,8.052,8.052,0,0,1,.138-1.475,7.623,7.623,0,0,1,5.852-6,8.09,8.09,0,0,1,1.657-.174,7.642,7.642,0,0,1,4.167,14.051Z" transform="translate(-340 -392)" fill="#313131"/><path d="M350.147,396a6.547,6.547,0,0,0-1.345.141,6.11,6.11,0,0,0-4.659,4.78.765.765,0,0,0,1.5.28h0a4.594,4.594,0,0,1,3.47-3.563,4.985,4.985,0,0,1,1.031-.109.765.765,0,1,0,0-1.529Z" transform="translate(-340.972 -392.941)" fill="#313131"/><path d="M347,417h7.647v1.529a1.529,1.529,0,0,1-1.529,1.529h-4.588A1.529,1.529,0,0,1,347,418.529Z" transform="translate(-341.647 -397.882)" fill="#c9cfff"/><path d="M354.952,416.224a.77.77,0,0,0-.541-.224h-7.647a.765.765,0,0,0-.765.765v1.529a2.294,2.294,0,0,0,2.294,2.294h4.588a2.294,2.294,0,0,0,2.294-2.294v-1.529A.77.77,0,0,0,354.952,416.224Zm-2.07,2.835h-4.588a.766.766,0,0,1-.765-.765v-.765h6.118v.765A.766.766,0,0,1,352.882,419.059Z" transform="translate(-341.412 -397.647)" fill="#313131"/><path d="M351.059,423.059A3.059,3.059,0,0,0,354.118,420H348A3.059,3.059,0,0,0,351.059,423.059Z" transform="translate(-341.882 -398.588)" fill="#313131"/></g></g></svg>