<svg xmlns="http://www.w3.org/2000/svg" xmlns:xlink="http://www.w3.org/1999/xlink" width="24" height="24" viewBox="0 0 24 24"><defs><clipPath id="a"><rect width="24" height="24" transform="translate(-0.137)"/></clipPath></defs><g transform="translate(0.137)" clip-path="url(#a)"><g transform="translate(1.267)"><g transform="translate(0 0)"><path d="M19.917,1.78h-1.9V1.391A1.393,1.393,0,0,0,16.623,0H4.843A1.393,1.393,0,0,0,3.452,1.391V1.78h-1.9A1.551,1.551,0,0,0,0,3.329V22.452A1.55,1.55,0,0,0,1.548,24H19.917a1.55,1.55,0,0,0,1.548-1.548V3.329A1.551,1.551,0,0,0,19.917,1.78ZM5.07,1.618H16.4V3.506H5.07ZM19.847,22.382H1.618V3.4H3.452v.335A1.393,1.393,0,0,0,4.843,5.124h11.78a1.393,1.393,0,0,0,1.391-1.391V3.4h1.834Z" transform="translate(0 0)"/><path d="M7.137,11.29H5.411a.809.809,0,1,0,0,1.618H7.137a.809.809,0,0,0,0-1.618Z" transform="translate(-1.151 -2.822)"/><path d="M7.137,15.892H5.411a.809.809,0,1,0,0,1.618H7.137a.809.809,0,0,0,0-1.618Z" transform="translate(-1.151 -3.973)"/><path d="M20.225,11.29H12.89a.809.809,0,0,0,0,1.618h7.335a.809.809,0,1,0,0-1.618Z" transform="translate(-3.02 -2.822)"/><path d="M20.225,15.892H12.89a.809.809,0,0,0,0,1.618h7.335a.809.809,0,1,0,0-1.618Z" transform="translate(-3.02 -3.973)"/><path d="M7.137,20.572H5.411a.809.809,0,0,0,0,1.618H7.137a.809.809,0,1,0,0-1.618Z" transform="translate(-1.151 -5.143)"/><path d="M20.225,20.572H12.89a.809.809,0,0,0,0,1.618h7.335a.809.809,0,1,0,0-1.618Z" transform="translate(-3.02 -5.143)"/></g></g></g></svg>