<svg xmlns="http://www.w3.org/2000/svg" xmlns:xlink="http://www.w3.org/1999/xlink" width="32" height="32" viewBox="0 0 32 32"><defs><clipPath id="a"><rect width="32" height="32" transform="translate(1519 865)" fill="none"/></clipPath></defs><g transform="translate(-1519 -865)" clip-path="url(#a)"><g transform="translate(1519 865)"><path d="M20.461,30.64c1.159-2.319,2.541-6.267.611-7.969a12.359,12.359,0,0,1-4.438,0c-2.947-.662-.405-6.172.406-9.162C5.194,17.814,9.482,25.656,10.952,30.8a.938.938,0,0,1-1.421,1.037c-.247-.164-6.042-4.1-6.042-10.153,0-9.922,11.248-10.348,11.248-20.747A.938.938,0,0,1,16.277.22c4.495,3.77,12.674,12.834,12.215,21.17-.228,4.133-2.473,7.648-6.673,10.448A.939.939,0,0,1,20.461,30.64Z"/></g></g></svg>