<svg xmlns="http://www.w3.org/2000/svg" xmlns:xlink="http://www.w3.org/1999/xlink" width="32" height="32" viewBox="0 0 32 32"><defs><clipPath id="a"><rect width="32" height="32" transform="translate(1146 413)" fill="#fff" stroke="#707070" stroke-width="1"/></clipPath></defs><g transform="translate(-1146 -413)" clip-path="url(#a)"><g transform="translate(1146.941 413.941)"><path d="M726.647,699a5.647,5.647,0,1,0,5.647,5.647A5.653,5.653,0,0,0,726.647,699Zm0,7.529a1.882,1.882,0,1,1,1.882-1.882A1.884,1.884,0,0,1,726.647,706.529Z" transform="translate(-720.059 -681.084)" fill="#c9cfff"/><path d="M744.647,699a5.647,5.647,0,1,0,5.647,5.647A5.653,5.653,0,0,0,744.647,699Zm0,7.529a1.882,1.882,0,1,1,1.882-1.882A1.884,1.884,0,0,1,744.647,706.529Z" transform="translate(-721.118 -681.084)" fill="#c9cfff"/><path d="M735.224,691.064l.665-.665-10.159-10.158a.94.94,0,0,0-1.417.1,7.53,7.53,0,0,0,.7,9.834l5.548,5.547a.941.941,0,0,0,1.331,0l3.992-3.992a.941.941,0,0,0,0-1.331l-.665.665-.665-.665-3.327,3.327-4.883-4.883a5.648,5.648,0,0,1-.532-7.371l-.752-.566-.665.665,10.159,10.158.665-.665-.665-.665Z" transform="translate(-720.165 -679.965)" fill="#313131"/><circle cx="1.882" cy="1.882" r="1.882" transform="translate(13.176 13.21)" fill="#c9cfff"/><path d="M726.824,702a2.824,2.824,0,1,0,2.824,2.824A2.826,2.826,0,0,0,726.824,702Zm0,3.765a.941.941,0,1,1,.941-.941A.946.946,0,0,1,726.824,705.765Z" transform="translate(-720.235 -681.261)" fill="#313131"/><path d="M744.823,702a2.824,2.824,0,1,0,2.824,2.824A2.826,2.826,0,0,0,744.823,702Zm0,3.765a.941.941,0,1,1,.941-.941A.946.946,0,0,1,744.823,705.765Z" transform="translate(-721.294 -681.261)" fill="#313131"/><path d="M743.529,696.939a6.605,6.605,0,0,0-1.157.108l-1.991-1.991,4.883-4.882a7.533,7.533,0,0,0,.7-9.834.94.94,0,0,0-1.417-.1l-16.807,16.807a6.626,6.626,0,1,0,5.323,5.324l1.991-1.991,1.991,1.991a6.585,6.585,0,1,0,6.48-5.432Zm1.5-14.514a5.616,5.616,0,0,1-1.1,6.418l-5.548,5.548-.519.519a2.81,2.81,0,0,0-2.661-2.662Zm-18.441,25.808a4.706,4.706,0,1,1,1.185-9.24l.017.008a4.664,4.664,0,0,1,1.112.458l.042.023a4.8,4.8,0,0,1,.49.329l.023.02a4.683,4.683,0,0,1,.827.827l.019.023a4.711,4.711,0,0,1,.329.491l.022.04a4.7,4.7,0,0,1,.459,1.114l.008.018a4.64,4.64,0,0,1-4.535,5.89Zm7.805-9.849-2.01,2.01a6.646,6.646,0,0,0-2.662-2.662l2.529-2.529a2.809,2.809,0,0,0,2.662,2.662Zm.665-2.386a.941.941,0,1,1,.941-.941A.943.943,0,0,1,735.059,696Zm1.331,3.051,2.662-2.662,1.345,1.345a6.64,6.64,0,0,0-2.662,2.662Zm7.14,9.184a4.64,4.64,0,0,1-4.535-5.89l.008-.018a4.694,4.694,0,0,1,.459-1.114l.022-.04a4.71,4.71,0,0,1,.329-.491l.019-.023a4.651,4.651,0,0,1,.827-.827l.023-.02a4.8,4.8,0,0,1,.49-.329l.042-.023a4.667,4.667,0,0,1,1.112-.458l.017-.008a4.7,4.7,0,1,1,1.185,9.24Z" transform="translate(-720 -679.965)" fill="#313131"/></g></g></svg>