<svg xmlns="http://www.w3.org/2000/svg" xmlns:xlink="http://www.w3.org/1999/xlink" width="24" height="24" viewBox="0 0 24 24"><defs><clipPath id="a"><rect width="24" height="24" transform="translate(-0.25)"/></clipPath></defs><g transform="translate(0.25)" clip-path="url(#a)"><g transform="translate(0 0.681)"><path d="M21.192,17.488a2.565,2.565,0,0,0-2.448,1.863l-.029.1H14.35l-.029-.1a2.587,2.587,0,0,0-1.74-1.761l-.1-.03V16.437l.128-.012a8.145,8.145,0,1,0-1.468,0l.128.011v1.122l-.1.03a2.584,2.584,0,0,0-1.74,1.761l-.029.1H5.023l-.029-.1a2.575,2.575,0,1,0,0,1.432l.029-.1H9.4l.029.1a2.54,2.54,0,0,0,4.9,0l.029-.1h4.365l.029.1a2.552,2.552,0,1,0,2.448-3.3Zm0,3.929a1.351,1.351,0,1,1,1.333-1.351A1.344,1.344,0,0,1,21.192,21.417ZM7.256,10.679a1.07,1.07,0,1,1,1.07,1.082,1.076,1.076,0,0,1-1.07-1.082ZM8.752,8.5,8.64,8.475V8.36A11.3,11.3,0,0,1,8.772,6.5l.018-.12H11.3v3.7h-.85l-.032-.1A2.211,2.211,0,0,0,8.751,8.5ZM9.1,5.055c.085-.276.181-.545.287-.8A6.715,6.715,0,0,1,11.063,1.8L11.3,1.6V5.239H9.043Zm.215-3.43.481-.189-.32.407A8.422,8.422,0,0,0,8.343,3.813,10.386,10.386,0,0,0,7.9,5.132l-.028.105H5.5l.1-.206A7.1,7.1,0,0,1,9.314,1.623ZM5.06,6.49l.027-.107H7.644l-.022.161A12.619,12.619,0,0,0,7.51,8.52v.094l-.085.039a2.216,2.216,0,0,0-1.19,1.334l-.032.1H5.087L5.06,9.977a7.252,7.252,0,0,1,0-3.487Zm1.13,4.736.03.1a2.22,2.22,0,0,0,2.106,1.579h.122l.038.085a8,8,0,0,0,.962,1.62l.319.411-.481-.192a7.089,7.089,0,0,1-3.689-3.4l-.1-.206ZM9.579,12.65l-.05-.106.093-.069a2.244,2.244,0,0,0,.81-1.151l.03-.1H11.3v3.65l-.234-.2A6.149,6.149,0,0,1,9.579,12.65Zm2.294,8.767a1.351,1.351,0,1,1,1.335-1.351,1.344,1.344,0,0,1-1.335,1.351ZM16.011,5.811a.654.654,0,1,1-.654-.661.648.648,0,0,1,.464.193.661.661,0,0,1,.191.469ZM14.272,4.375a1.807,1.807,0,0,0-.578.775l-.035.09H12.425V1.593l.234.205a6.535,6.535,0,0,1,1.657,2.409l.043.1Zm.691,3.194.1.024,0,.108a11.347,11.347,0,0,1-.118,2.26l-.019.12H12.425v-3.7h1.233l.035.09A1.787,1.787,0,0,0,14.962,7.569Zm-.34,3.838c-.066.214-.14.425-.216.625a6.815,6.815,0,0,1-1.747,2.627l-.234.208V11.223h2.253Zm-.214,3.429-.481.189.321-.41a8.509,8.509,0,0,0,1.21-2.167,10.487,10.487,0,0,0,.363-1.121l.028-.105h2.377l-.1.209a7.1,7.1,0,0,1-3.714,3.407Zm4.253-4.862-.027.107H16.078L16.1,9.92a12.587,12.587,0,0,0,.093-2.426l-.005-.086.074-.044a1.815,1.815,0,0,0,.755-.894l.035-.09h1.582l.027.107a7.238,7.238,0,0,1,0,3.487Zm-1.61-4.736-.035-.09A1.776,1.776,0,0,0,15.54,4.014L15.455,4l-.031-.079a8.455,8.455,0,0,0-1.173-2.078l-.32-.41.481.189a7.093,7.093,0,0,1,3.71,3.405l.1.206ZM2.546,18.716a1.351,1.351,0,1,1-1.333,1.351,1.344,1.344,0,0,1,1.333-1.351Z" transform="translate(0.01 -0.006)"/></g></g></svg>