<svg xmlns="http://www.w3.org/2000/svg" width="16" height="16" viewBox="0 0 16 16"><path d="M529.89-6584.191l-3.345-3.344a7.014,7.014,0,0,1-4.5,1.627,7.054,7.054,0,0,1-7.046-7.046,7.054,7.054,0,0,1,7.046-7.046,7.054,7.054,0,0,1,7.046,7.046,7.014,7.014,0,0,1-1.627,4.5l3.345,3.345a.65.65,0,0,1,0,.919.648.648,0,0,1-.46.191A.647.647,0,0,1,529.89-6584.191Zm-13.589-8.763a5.752,5.752,0,0,0,5.745,5.745,5.752,5.752,0,0,0,5.745-5.745,5.752,5.752,0,0,0-5.745-5.745A5.752,5.752,0,0,0,516.3-6592.954Z" transform="translate(-515.001 6600)" opacity="0.5"/></svg>