<svg xmlns="http://www.w3.org/2000/svg" xmlns:xlink="http://www.w3.org/1999/xlink" width="32" height="32" viewBox="0 0 32 32"><defs><clipPath id="a"><rect width="32" height="32" transform="translate(954 125)" fill="#fff" stroke="#707070" stroke-width="1"/></clipPath></defs><g transform="translate(-954 -125)" clip-path="url(#a)"><g transform="translate(954.941 125.941)"><path d="M555.52,398.612a.941.941,0,0,0-1.557,1.058h0a13.187,13.187,0,1,1-3.515-3.515.941.941,0,1,0,1.058-1.557,15.07,15.07,0,1,0,4.014,4.014Z" transform="translate(-528 -392)" fill="#313131"/><path d="M543.471,399a8.471,8.471,0,1,0,8.471,8.471A8.48,8.48,0,0,0,543.471,399Zm0,11.294a2.824,2.824,0,1,1,2.824-2.824A2.827,2.827,0,0,1,543.471,410.294Z" transform="translate(-528.412 -392.412)" fill="#c9cfff"/><g transform="translate(5.647 5.647)"><path d="M543.765,404a3.765,3.765,0,1,0,3.765,3.765A3.768,3.768,0,0,0,543.765,404Zm0,5.647a1.882,1.882,0,1,1,1.882-1.882A1.89,1.89,0,0,1,543.765,409.647Z" transform="translate(-534.353 -398.353)" fill="#313131"/><path d="M543.412,398a9.412,9.412,0,1,0,9.412,9.412A9.421,9.421,0,0,0,543.412,398Zm5.321,14.733a7.516,7.516,0,1,1,2.208-5.321A7.5,7.5,0,0,1,548.733,412.733Z" transform="translate(-534 -398)" fill="#313131"/></g><line x1="7.529" y2="7.529" transform="translate(15.059 7.53)" fill="#fff"/><path d="M552.136,399.276a.94.94,0,0,0-1.331,0l-7.529,7.529a.941.941,0,0,0,1.331,1.331l7.529-7.529A.94.94,0,0,0,552.136,399.276Z" transform="translate(-528.882 -392.412)" fill="#313131"/><path d="M559.34,396.345a.943.943,0,0,0-.87-.581h-2.824v-2.824a.941.941,0,0,0-1.607-.665l-3.765,3.765a.948.948,0,0,0-.276.665v3.765a.942.942,0,0,0,.941.941h3.765a.948.948,0,0,0,.665-.276l3.765-3.765A.941.941,0,0,0,559.34,396.345Zm-5.024,3.184h-2.434V397.1l1.882-1.882v1.493a.942.942,0,0,0,.941.941H556.2Z" transform="translate(-529.294 -392)" fill="#313131"/></g></g></svg>