<svg xmlns="http://www.w3.org/2000/svg" xmlns:xlink="http://www.w3.org/1999/xlink" width="24" height="24" viewBox="0 0 24 24"><defs><clipPath id="a"><rect width="24" height="24" fill="#fff"/></clipPath></defs><g clip-path="url(#a)"><g transform="translate(2.484)"><path d="M9.516,0A9.517,9.517,0,0,0,5.452,18.122L8.921,23.67a.7.7,0,0,0,1.193,0l3.469-5.548A9.518,9.518,0,0,0,9.516,0Zm3.293,16.928a.7.7,0,0,0-.31.27L9.516,21.97,6.533,17.2a.7.7,0,0,0-.31-.27,8.109,8.109,0,1,1,6.586,0Z" fill="#fff"/><path d="M10.98,5.763A5.217,5.217,0,1,0,16.2,10.98,5.217,5.217,0,0,0,10.98,5.763Zm0,9.325a4.109,4.109,0,1,1,4.109-4.109,4.109,4.109,0,0,1-4.109,4.109Z" transform="translate(-1.441 -1.441)" fill="#fff"/></g></g></svg>