<svg xmlns="http://www.w3.org/2000/svg" width="107.091" height="102.07" viewBox="0 0 107.091 102.07"><path d="M51.552,99.747,13.6,78.906a2.053,2.053,0,0,1-1.065-1.8V56.056l-11.469-6.3A2.052,2.052,0,0,1,.6,46.507L11.683,35.426.6,24.344a2.053,2.053,0,0,1,.463-3.25L39.019.254A2.053,2.053,0,0,1,41.457.6L52.54,11.684,63.623.6A2.051,2.051,0,0,1,66.061.254L77.025,6.274a2.052,2.052,0,0,1-1.975,3.6L65.436,4.593l-9.51,9.51L90.132,32.886l9.51-9.51-10.925-6a2.052,2.052,0,0,1,1.975-3.6l13.323,7.315a2.053,2.053,0,0,1,.463,3.25L93.4,35.426l11.082,11.082a2.053,2.053,0,0,1-.463,3.25l-11.469,6.3V77.107a2.053,2.053,0,0,1-1.065,1.8L53.528,99.747a2.052,2.052,0,0,1-1.975,0ZM54.592,73.5v20.98L88.442,75.893V58.31L66.061,70.6a2.052,2.052,0,0,1-2.439-.348L52.54,59.169,41.457,70.251a2.052,2.052,0,0,1-2.439.348L16.638,58.31V75.893L50.488,94.479V73.5a2.052,2.052,0,1,1,4.1,0Zm1.333-16.751,9.51,9.511L99.643,47.476l-9.511-9.51ZM5.438,47.477,39.645,66.26l9.511-9.511L14.949,37.966ZM18.85,35.425l33.69,18.5,33.69-18.5-33.69-18.5ZM5.438,23.376l9.51,9.51L49.154,14.1l-9.509-9.51ZM51.089,68.139a2.055,2.055,0,1,1,1.451.6A2.074,2.074,0,0,1,51.089,68.139ZM81.628,13.39a2.05,2.05,0,1,1,1.451.6A2.056,2.056,0,0,1,81.628,13.39Z" transform="translate(1.005 1.07)" fill="rgba(132,141,219,0.3)" stroke="#fff" stroke-width="2"/></svg>