<svg xmlns="http://www.w3.org/2000/svg" xmlns:xlink="http://www.w3.org/1999/xlink" width="32" height="32" viewBox="0 0 32 32"><defs><clipPath id="a"><rect width="32" height="32" transform="translate(858 317)" fill="#fff" stroke="#707070" stroke-width="1"/></clipPath></defs><g transform="translate(-858 -317)" clip-path="url(#a)"><g transform="translate(861.765 317.941)"><path d="M450.982,587.623l-2.072-2.072a1.882,1.882,0,0,0-2.662,0l-2.663,2.662a1.883,1.883,0,0,0,0,2.663l2.072,2.072a7.5,7.5,0,0,0,1.922,7.245l10.648-10.648A7.5,7.5,0,0,0,450.982,587.623Z" transform="translate(-434.532 -584.059)" fill="#c9cfff"/><path d="M452.087,614.647a6.557,6.557,0,0,0-12.986,0Z" transform="translate(-434.3 -585.471)" fill="#c9cfff"/><path d="M458.638,589.485a.948.948,0,0,0-.276-.665,8.377,8.377,0,0,0-5.949-2.452,8.632,8.632,0,0,0-1.65.178l-1.719-1.719a2.823,2.823,0,0,0-3.993,0l-2.662,2.662a2.823,2.823,0,0,0,0,3.993l.195.195-5.523,5.523c-.08-.007-.157-.024-.238-.024a2.824,2.824,0,1,0,0,5.647,2.8,2.8,0,0,0,1.163-.257l4.55,4.55a7.538,7.538,0,0,0-4.667,5.926.941.941,0,0,0,.932,1.076h12.986a.941.941,0,0,0,.932-1.076,7.512,7.512,0,0,0-7.425-6.454c-.2,0-.4.012-.6.028l-5.359-5.359a2.771,2.771,0,0,0-.474-3.2l5.05-5.05.193.193a8.7,8.7,0,0,0-.177,1.65,8.372,8.372,0,0,0,2.452,5.948.941.941,0,0,0,1.331,0l2.064-2.063a4.707,4.707,0,0,0,5.922-.6l-.665-.665.665.665a4.705,4.705,0,0,0,.6-5.923l2.064-2.063A.95.95,0,0,0,458.638,589.485Zm-21.815,11.456a.941.941,0,1,1,.941-.941A.943.943,0,0,1,436.824,600.941ZM445,608.5c.1,0,.191-.026.291-.026a5.608,5.608,0,0,1,5.289,3.765H440a5.618,5.618,0,0,1,4.12-3.632A.931.931,0,0,0,445,608.5Zm9.366-11.69a2.788,2.788,0,0,1-3.206.543l3.75-3.749a2.787,2.787,0,0,1-.544,3.206Zm0-5.324-5.324,5.324-1.943,1.943a6.507,6.507,0,0,1-1.288-3.9,6.771,6.771,0,0,1,.223-1.723.935.935,0,0,0-.245-.9l-2.072-2.072a.941.941,0,0,1,0-1.331l2.663-2.663a.941.941,0,0,1,1.331,0l2.072,2.071a.938.938,0,0,0,.905.245,6.757,6.757,0,0,1,1.722-.224,6.512,6.512,0,0,1,3.9,1.289Z" transform="translate(-434 -584)" fill="#313131"/></g></g></svg>