<svg xmlns="http://www.w3.org/2000/svg" xmlns:xlink="http://www.w3.org/1999/xlink" width="52" height="52" viewBox="0 0 52 52"><defs><clipPath id="a"><rect width="32" height="32" transform="translate(1146 509)" fill="none"/></clipPath></defs><g transform="translate(-25 -234)"><circle cx="26" cy="26" r="26" transform="translate(25 234)"/><g transform="translate(-1111 -265)" clip-path="url(#a)"><g transform="translate(1146.941 511.824)"><path d="M747.294,776H722.824A2.825,2.825,0,0,0,720,778.823v15.059a2.824,2.824,0,0,0,2.824,2.824h4.706v4.706a.941.941,0,0,0,1.607.665l5.371-5.371h12.787a2.824,2.824,0,0,0,2.824-2.824V778.823A2.825,2.825,0,0,0,747.294,776Zm.941,17.882a.943.943,0,0,1-.941.941H734.118a.948.948,0,0,0-.665.276l-4.04,4.04v-3.375a.942.942,0,0,0-.941-.941h-5.647a.943.943,0,0,1-.941-.941V778.823a.942.942,0,0,1,.941-.941h24.471a.942.942,0,0,1,.941.941Z" transform="translate(-720 -776)" fill="#fff"/><path d="M743.882,782H726.941a.941.941,0,0,0,0,1.882h16.941a.941.941,0,1,0,0-1.882Z" transform="translate(-720.353 -776.353)" fill="#fff"/><path d="M743.882,786H726.941a.941.941,0,0,0,0,1.882h16.941a.941.941,0,1,0,0-1.882Z" transform="translate(-720.353 -776.588)" fill="#fff"/><path d="M735.412,790h-8.471a.941.941,0,0,0,0,1.882h8.471a.941.941,0,0,0,0-1.882Z" transform="translate(-720.353 -776.824)" fill="#fff"/></g></g></g></svg>