<svg xmlns="http://www.w3.org/2000/svg" width="38" height="35" viewBox="0 0 38 35"><path d="M1220.167,467h-6.333A15.8,15.8,0,0,0,1198,482.774h0a15.716,15.716,0,0,0,5.68,12.1l-1.169,5.7a1.11,1.11,0,0,0,1.7,1.21l5.372-3.818a15.9,15.9,0,0,0,4.249.575h6.333A15.8,15.8,0,0,0,1236,482.774h0A15.8,15.8,0,0,0,1220.167,467Zm7.853,15.741a9.116,9.116,0,0,1-3.294,7.02l.678,3.308a.644.644,0,0,1-.987.7l-3.116-2.214a9.221,9.221,0,0,1-2.464.334h-3.673a9.166,9.166,0,0,1-9.183-9.149h0a9.166,9.166,0,0,1,9.183-9.149h3.673a9.166,9.166,0,0,1,9.183,9.149Z" transform="translate(-1198 -467)" fill="#a2e0f2"/></svg>