<svg xmlns="http://www.w3.org/2000/svg" xmlns:xlink="http://www.w3.org/1999/xlink" width="32" height="32" viewBox="0 0 32 32"><defs><clipPath id="a"><rect width="32" height="32" transform="translate(474 413)" fill="#fff" stroke="#707070" stroke-width="1"/></clipPath></defs><g transform="translate(-474 -413)" clip-path="url(#a)"><g transform="translate(474.941 416.765)"><path d="M65.941,697v1.882a1.882,1.882,0,0,1-1.882,1.882H62.176a1.882,1.882,0,0,1-1.882-1.882V697H49v11.294a1.882,1.882,0,0,0,1.882,1.882H75.353a1.882,1.882,0,0,0,1.882-1.882V697Z" transform="translate(-48.059 -682.882)" fill="#c9cfff"/><path d="M75.353,689H50.882A1.882,1.882,0,0,0,49,690.882v5.647H77.235v-5.647A1.882,1.882,0,0,0,75.353,689Z" transform="translate(-48.059 -682.412)" fill="#c9cfff"/><path d="M75.294,687.647H70.588v-2.824A2.825,2.825,0,0,0,67.765,682H58.353a2.825,2.825,0,0,0-2.824,2.823v2.824H50.824A2.825,2.825,0,0,0,48,690.471v16.941a2.824,2.824,0,0,0,2.824,2.824H75.294a2.824,2.824,0,0,0,2.824-2.824V690.471A2.825,2.825,0,0,0,75.294,687.647Zm-17.882-2.824a.942.942,0,0,1,.941-.941h9.412a.942.942,0,0,1,.941.941v2.824H57.412Zm18.824,22.588a.943.943,0,0,1-.941.941H50.824a.943.943,0,0,1-.941-.941V697.059h9.412V698a2.816,2.816,0,0,0,1.245,2.341,2.8,2.8,0,0,0,1.578.483H64a2.807,2.807,0,0,0,1.924-.767c.023-.022.05-.038.072-.06a2.936,2.936,0,0,0,.827-2v-.941h9.412ZM61.176,698v-.941h3.765V698a.943.943,0,0,1-.941.941H62.118A.943.943,0,0,1,61.176,698Zm15.059-2.823H49.882v-4.706a.942.942,0,0,1,.941-.941H75.294a.942.942,0,0,1,.941.941Z" transform="translate(-48 -682)" fill="#313131"/></g></g></svg>