<svg xmlns="http://www.w3.org/2000/svg" xmlns:xlink="http://www.w3.org/1999/xlink" width="60" height="60" viewBox="0 0 60 60"><defs><clipPath id="a"><rect width="60" height="60" transform="translate(12695 5703)" fill="#fff" stroke="#707070" stroke-width="1"/></clipPath></defs><g transform="translate(-12695 -5703)" clip-path="url(#a)"><g transform="translate(12695 5709.035)"><g transform="translate(7.161 20.293)"><path d="M20.412,74.18h29.3a2.509,2.509,0,0,0,0-5.017h-29.3a2.509,2.509,0,1,0,0,5.017Z" transform="translate(-17.904 -67.826)" fill="#a5dbff"/><path d="M49.711,106.862h-29.3a2.509,2.509,0,1,0,0,5.017h29.3a2.509,2.509,0,0,0,0-5.017Z" transform="translate(-17.904 -90.445)" fill="#a5dbff"/><circle cx="2.946" cy="2.946" r="2.946" transform="matrix(0.383, -0.924, 0.924, 0.383, 38.94, 5.442)" fill="#fff398"/><circle cx="2.945" cy="2.945" r="2.945" transform="translate(39.824 15.98)" fill="#66e4d1"/></g><path d="M10.728,33.444H53.3a7.543,7.543,0,0,1,7.367,5.929L58.425,24.44a7.545,7.545,0,0,0-7.462-6.423h-37.9A7.545,7.545,0,0,0,5.607,24.44L3.361,39.374a7.543,7.543,0,0,1,7.367-5.929Z" transform="translate(-2.016 -16.845)" fill="#9593e6"/><path d="M60.413,62.514a7.543,7.543,0,0,0-7.367-5.929H10.469a7.54,7.54,0,0,0,0,15.08,7.54,7.54,0,1,0,0,15.08H53.046a7.54,7.54,0,1,0,0-15.08A7.544,7.544,0,0,0,60.413,62.514ZM51.688,61.18a2.945,2.945,0,1,1-2.945,2.945A2.945,2.945,0,0,1,51.688,61.18Zm-40.261.436h29.3a2.509,2.509,0,0,1,0,5.017h-29.3a2.509,2.509,0,0,1,0-5.017ZM43.235,79.2a2.509,2.509,0,0,1-2.509,2.509h-29.3a2.509,2.509,0,1,1,0-5.017h29.3A2.509,2.509,0,0,1,43.235,79.2Zm11.4,0a2.945,2.945,0,1,1-2.945-2.945A2.945,2.945,0,0,1,54.633,79.2Z" transform="translate(-1.758 -39.986)" fill="#cbcaf3"/><g transform="translate(0 0)"><path d="M59.813,37.431,57.568,22.508a8.719,8.719,0,0,0-8.62-7.421h-37.9a8.719,8.719,0,0,0-8.62,7.421C1.978,25.5,0,38.418,0,39.226a8.715,8.715,0,0,0,4.356,7.54A8.709,8.709,0,0,0,8.712,63.018H51.288a8.709,8.709,0,0,0,4.356-16.251,8.71,8.71,0,0,0,4.169-9.335ZM2.368,38.686l.124-.822a6.378,6.378,0,0,1,6.22-5.006H51.288a6.378,6.378,0,0,1,6.22,5.007l.123.82a6.793,6.793,0,0,1-6.808,6.909H9.176a6.8,6.8,0,0,1-6.808-6.908Zm8.684-21.255h37.9a6.375,6.375,0,0,1,6.3,5.425L56.685,32.4a8.667,8.667,0,0,0-5.4-1.881H8.712a8.667,8.667,0,0,0-5.4,1.881L4.75,22.857a6.375,6.375,0,0,1,6.3-5.425Zm46.6,36.874a6.375,6.375,0,0,1-6.368,6.368H8.712a6.368,6.368,0,0,1,0-12.736H51.288A6.375,6.375,0,0,1,57.656,54.306Z" transform="translate(0 -15.088)"/><path d="M47.953,66.233h-29.3a3.68,3.68,0,0,0,0,7.361h29.3a3.68,3.68,0,0,0,0-7.361Zm0,5.017h-29.3a1.337,1.337,0,1,1,0-2.674h29.3a1.337,1.337,0,0,1,0,2.674Z" transform="translate(-8.984 -45.775)"/><path d="M47.953,103.932h-29.3a3.68,3.68,0,0,0,0,7.361h29.3a3.68,3.68,0,0,0,0-7.361Zm0,5.017h-29.3a1.337,1.337,0,1,1,0-2.673h29.3a1.337,1.337,0,0,1,0,2.673Z" transform="translate(-8.984 -68.394)"/><path d="M122.768,69.259a4.117,4.117,0,1,0-4.117,4.117A4.121,4.121,0,0,0,122.768,69.259Zm-4.117,1.773a1.773,1.773,0,1,1,1.773-1.773A1.775,1.775,0,0,1,118.651,71.032Z" transform="translate(-68.721 -45.12)"/><path d="M114.534,106.958a4.117,4.117,0,1,0,4.117-4.117A4.121,4.121,0,0,0,114.534,106.958Zm5.89,0a1.773,1.773,0,1,1-1.773-1.773A1.775,1.775,0,0,1,120.424,106.958Z" transform="translate(-68.721 -67.74)"/><path d="M33.314,28.859H54.09a1.172,1.172,0,1,0,0-2.344H33.314a1.172,1.172,0,0,0,0,2.344Z" transform="translate(-19.285 -21.944)"/><path d="M96.972,28.859h0A1.172,1.172,0,1,0,95.8,27.687,1.171,1.171,0,0,0,96.975,28.859Z" transform="translate(-57.48 -21.944)"/></g></g></g></svg>